<mxfile host="app.diagrams.net" modified="2023-03-08T12:54:45.344Z" agent="5.0 (Macintosh; Intel Mac OS X 10_15_7) AppleWebKit/537.36 (KHTML, like Gecko) Chrome/110.0.0.0 Safari/537.36" etag="AM2OIDwwvwEf3Siahwcq" version="21.0.2" type="github">
  <diagram name="Page-1" id="2YBvvXClWsGukQMizWep">
    <mxGraphModel dx="2074" dy="1160" grid="1" gridSize="10" guides="1" tooltips="1" connect="1" arrows="1" fold="1" page="1" pageScale="1" pageWidth="850" pageHeight="1100" math="0" shadow="0">
      <root>
        <mxCell id="0" />
        <mxCell id="1" parent="0" />
        <mxCell id="aM9ryv3xv72pqoxQDRHE-1" value=":Object" style="shape=umlLifeline;perimeter=lifelinePerimeter;whiteSpace=wrap;html=1;container=0;dropTarget=0;collapsible=0;recursiveResize=0;outlineConnect=0;portConstraint=eastwest;newEdgeStyle={&quot;edgeStyle&quot;:&quot;elbowEdgeStyle&quot;,&quot;elbow&quot;:&quot;vertical&quot;,&quot;curved&quot;:0,&quot;rounded&quot;:0};" parent="1" vertex="1">
          <mxGeometry x="40" y="40" width="100" height="300" as="geometry" />
        </mxCell>
        <mxCell id="aM9ryv3xv72pqoxQDRHE-2" value="" style="html=1;points=[];perimeter=orthogonalPerimeter;outlineConnect=0;targetShapes=umlLifeline;portConstraint=eastwest;newEdgeStyle={&quot;edgeStyle&quot;:&quot;elbowEdgeStyle&quot;,&quot;elbow&quot;:&quot;vertical&quot;,&quot;curved&quot;:0,&quot;rounded&quot;:0};" parent="aM9ryv3xv72pqoxQDRHE-1" vertex="1">
          <mxGeometry x="45" y="70" width="10" height="190" as="geometry" />
        </mxCell>
        <mxCell id="aM9ryv3xv72pqoxQDRHE-3" value="dispatch" style="html=1;verticalAlign=bottom;startArrow=oval;endArrow=block;startSize=8;edgeStyle=elbowEdgeStyle;elbow=vertical;curved=0;rounded=0;" parent="aM9ryv3xv72pqoxQDRHE-1" target="aM9ryv3xv72pqoxQDRHE-2" edge="1">
          <mxGeometry relative="1" as="geometry">
            <mxPoint x="-15" y="70" as="sourcePoint" />
          </mxGeometry>
        </mxCell>
        <mxCell id="aM9ryv3xv72pqoxQDRHE-4" value="" style="html=1;points=[];perimeter=orthogonalPerimeter;outlineConnect=0;targetShapes=umlLifeline;portConstraint=eastwest;newEdgeStyle={&quot;edgeStyle&quot;:&quot;elbowEdgeStyle&quot;,&quot;elbow&quot;:&quot;vertical&quot;,&quot;curved&quot;:0,&quot;rounded&quot;:0};" parent="aM9ryv3xv72pqoxQDRHE-1" vertex="1">
          <mxGeometry x="50" y="120" width="10" height="80" as="geometry" />
        </mxCell>
        <mxCell id="aM9ryv3xv72pqoxQDRHE-5" value=":Object" style="shape=umlLifeline;perimeter=lifelinePerimeter;whiteSpace=wrap;html=1;container=0;dropTarget=0;collapsible=0;recursiveResize=0;outlineConnect=0;portConstraint=eastwest;newEdgeStyle={&quot;edgeStyle&quot;:&quot;elbowEdgeStyle&quot;,&quot;elbow&quot;:&quot;vertical&quot;,&quot;curved&quot;:0,&quot;rounded&quot;:0};" parent="1" vertex="1">
          <mxGeometry x="220" y="40" width="100" height="300" as="geometry" />
        </mxCell>
        <mxCell id="aM9ryv3xv72pqoxQDRHE-6" value="" style="html=1;points=[];perimeter=orthogonalPerimeter;outlineConnect=0;targetShapes=umlLifeline;portConstraint=eastwest;newEdgeStyle={&quot;edgeStyle&quot;:&quot;elbowEdgeStyle&quot;,&quot;elbow&quot;:&quot;vertical&quot;,&quot;curved&quot;:0,&quot;rounded&quot;:0};" parent="aM9ryv3xv72pqoxQDRHE-5" vertex="1">
          <mxGeometry x="45" y="80" width="10" height="170" as="geometry" />
        </mxCell>
        <mxCell id="aM9ryv3xv72pqoxQDRHE-7" value="dispatch" style="html=1;verticalAlign=bottom;endArrow=block;edgeStyle=elbowEdgeStyle;elbow=vertical;curved=0;rounded=0;" parent="1" source="aM9ryv3xv72pqoxQDRHE-2" target="aM9ryv3xv72pqoxQDRHE-6" edge="1">
          <mxGeometry relative="1" as="geometry">
            <mxPoint x="195" y="130" as="sourcePoint" />
            <Array as="points">
              <mxPoint x="180" y="120" />
            </Array>
          </mxGeometry>
        </mxCell>
        <mxCell id="aM9ryv3xv72pqoxQDRHE-8" value="return" style="html=1;verticalAlign=bottom;endArrow=open;dashed=1;endSize=8;edgeStyle=elbowEdgeStyle;elbow=vertical;curved=0;rounded=0;" parent="1" source="aM9ryv3xv72pqoxQDRHE-6" target="aM9ryv3xv72pqoxQDRHE-2" edge="1">
          <mxGeometry relative="1" as="geometry">
            <mxPoint x="195" y="205" as="targetPoint" />
            <Array as="points">
              <mxPoint x="190" y="280" />
            </Array>
          </mxGeometry>
        </mxCell>
        <mxCell id="aM9ryv3xv72pqoxQDRHE-9" value="callback" style="html=1;verticalAlign=bottom;endArrow=block;edgeStyle=elbowEdgeStyle;elbow=vertical;curved=0;rounded=0;" parent="1" source="aM9ryv3xv72pqoxQDRHE-6" target="aM9ryv3xv72pqoxQDRHE-4" edge="1">
          <mxGeometry relative="1" as="geometry">
            <mxPoint x="175" y="160" as="sourcePoint" />
            <Array as="points">
              <mxPoint x="190" y="160" />
            </Array>
          </mxGeometry>
        </mxCell>
        <mxCell id="aM9ryv3xv72pqoxQDRHE-10" value="return" style="html=1;verticalAlign=bottom;endArrow=open;dashed=1;endSize=8;edgeStyle=elbowEdgeStyle;elbow=vertical;curved=0;rounded=0;" parent="1" source="aM9ryv3xv72pqoxQDRHE-4" target="aM9ryv3xv72pqoxQDRHE-6" edge="1">
          <mxGeometry relative="1" as="geometry">
            <mxPoint x="175" y="235" as="targetPoint" />
            <Array as="points">
              <mxPoint x="180" y="230" />
            </Array>
          </mxGeometry>
        </mxCell>
        <mxCell id="7Er0ZHuBf4pXvNHMomGy-1" value="" style="shape=image;verticalLabelPosition=bottom;labelBackgroundColor=default;verticalAlign=top;aspect=fixed;imageAspect=0;image=https://casdoor.org/zh/img/favicon.png;" vertex="1" parent="1">
          <mxGeometry x="425" y="730" width="90" height="90" as="geometry" />
        </mxCell>
        <mxCell id="7Er0ZHuBf4pXvNHMomGy-2" value="" style="shape=image;verticalLabelPosition=bottom;labelBackgroundColor=default;verticalAlign=top;aspect=fixed;imageAspect=0;image=https://upload.wikimedia.org/wikipedia/commons/thumb/6/6f/Go_gopher_mascot_bw.png/2048px-Go_gopher_mascot_bw.png;" vertex="1" parent="1">
          <mxGeometry x="140" y="510" width="80" height="80" as="geometry" />
        </mxCell>
        <mxCell id="7Er0ZHuBf4pXvNHMomGy-5" value="" style="shape=image;verticalLabelPosition=bottom;labelBackgroundColor=default;verticalAlign=top;aspect=fixed;imageAspect=0;image=data:image/png,iVBORw0KGgoAAAANSUhEUgAAAPoAAACWCAYAAAD32pUcAAAACXBIWXMAAA7EAAAOxAGVKw4bAAAEemlUWHRYTUw6Y29tLmFkb2JlLnhtcAAAAAAAPD94cGFja2V0IGJlZ2luPSfvu78nIGlkPSdXNU0wTXBDZWhpSHpyZVN6TlRjemtjOWQnPz4KPHg6eG1wbWV0YSB4bWxuczp4PSdhZG9iZTpuczptZXRhLyc+CjxyZGY6UkRGIHhtbG5zOnJkZj0naHR0cDovL3d3dy53My5vcmcvMTk5OS8wMi8yMi1yZGYtc3ludGF4LW5zIyc+CgogPHJkZjpEZXNjcmlwdGlvbiByZGY6YWJvdXQ9JycKICB4bWxuczpBdHRyaWI9J2h0dHA6Ly9ucy5hdHRyaWJ1dGlvbi5jb20vYWRzLzEuMC8nPgogIDxBdHRyaWI6QWRzPgogICA8cmRmOlNlcT4KICAgIDxyZGY6bGkgcmRmOnBhcnNlVHlwZT0nUmVzb3VyY2UnPgogICAgIDxBdHRyaWI6Q3JlYXRlZD4yMDIzLTAzLTAyPC9BdHRyaWI6Q3JlYXRlZD4KICAgICA8QXR0cmliOkV4dElkPjI2MDZhMTVmLWMxZWMtNGFkMC04MmVhLWZlYTY3YmNjYWY2NTwvQXR0cmliOkV4dElkPgogICAgIDxBdHRyaWI6RmJJZD41MjUyNjU5MTQxNzk1ODA8L0F0dHJpYjpGYklkPgogICAgIDxBdHRyaWI6VG91Y2hUeXBlPjI8L0F0dHJpYjpUb3VjaFR5cGU+CiAgICA8L3JkZjpsaT4KICAgPC9yZGY6U2VxPgogIDwvQXR0cmliOkFkcz4KIDwvcmRmOkRlc2NyaXB0aW9uPgoKIDxyZGY6RGVzY3JpcHRpb24gcmRmOmFib3V0PScnCiAgeG1sbnM6ZGM9J2h0dHA6Ly9wdXJsLm9yZy9kYy9lbGVtZW50cy8xLjEvJz4KICA8ZGM6dGl0bGU+CiAgIDxyZGY6QWx0PgogICAgPHJkZjpsaSB4bWw6bGFuZz0neC1kZWZhdWx0Jz5DbG91ZHZuICgyNTAgw5cgMTUwIHB4KSAtIDE8L3JkZjpsaT4KICAgPC9yZGY6QWx0PgogIDwvZGM6dGl0bGU+CiA8L3JkZjpEZXNjcmlwdGlvbj4KCiA8cmRmOkRlc2NyaXB0aW9uIHJkZjphYm91dD0nJwogIHhtbG5zOnBkZj0naHR0cDovL25zLmFkb2JlLmNvbS9wZGYvMS4zLyc+CiAgPHBkZjpBdXRob3I+ROG7sSDEkG/DoG48L3BkZjpBdXRob3I+CiA8L3JkZjpEZXNjcmlwdGlvbj4KCiA8cmRmOkRlc2NyaXB0aW9uIHJkZjphYm91dD0nJwogIHhtbG5zOnhtcD0naHR0cDovL25zLmFkb2JlLmNvbS94YXAvMS4wLyc+CiAgPHhtcDpDcmVhdG9yVG9vbD5DYW52YTwveG1wOkNyZWF0b3JUb29sPgogPC9yZGY6RGVzY3JpcHRpb24+CjwvcmRmOlJERj4KPC94OnhtcG1ldGE+Cjw/eHBhY2tldCBlbmQ9J3InPz4SNbwwAAAgAElEQVR4nOy9ebxdVX33//6stc+592YkhAwoCAo44oAUBXlU8FFxqhPa2Va0AjI51Efrr7a1TrXDU1qFAGqLWus8PNYBFSyI4FCcZw1TDBASAiQhyR3O3uvz+2Otvc+5IUCABLTmm1eSe/fZe589rM/6fOcldsu9Kkee/n3GbthAb8NWppfvCTKygkQwNArBaneWEEJqaKjmUTEmMyFYKNgbhWXIB0rCEsrHSFAjfmzCFuRrU2BjaLwlxDClJk42lZGMEAiIASUHBQWgMThEE5qKZOOxAZ8/7mH31iPbLXdBdMe77JadLUe98esIUNWQ6gpAgggkR5IsJLDAIY5HexlwJNKDCNoD6yDEbyHPKUjuCfUsZcBKuJxVBfB5thCIAdJAYMQGpG8LXQlsJPA9me+4F9ap8ZTCcHgkFEJAKDQk86DrbuHqZXPZMK/PhS96wD39CHfLnZTdQL+H5ElvuJSBekxOjTO3vxWFJAVFEo0rWc77pYo5IelwxNFC95d0FGIvw5gKcA1IApyZW4IM3CRImdEZ0QCMpZjJPb9zbzMJ5PMaSdOSbrB0QcA/IOh8N76CECYVQKqAOoBkhcZNIvT7OCW2/nIVF73x6Hvj8e6WO5DdQN/F8oTXf41qwmy8bg7z99qCCVEB26QQBAlc6QGYpyE9VvIxoGWZfAuIZYySpKaAOBRoillqOvkI2SPbM4ZH96MDugXJ+URYjpJCmTjI04Ia0Brk85E+J/XOh3pT3iGCUjRYJi1+aZ/175ohTQS+8KID7o3HvVtuQ3YDfZeIOfoNl1CFmpmpcVQ1EIjVHhubwYY9UTCYpQp6rtGxmb0Zqt7IluoMUgWwCjCHoLUkGTqGb1k+TwzadgJoWd7qfi6kb+cz2+U4wEgpaxBUbm13QNI64HzE56X4aZS2uP3IBMuN+gmmRDKc97IH3eNPf7fcWnYDfSfLE193MRe9/Ts8+52PZdOaWsrs2xAgbZkgzJ1+FtKLkJ8uND+rzQCqMzAdJMlZz24xpk5Fb0HrEUBTgE4B9xCwt1LRC+d3QB9RBcrxpvv6ztSXgcYi5olH7TVfa/wpgt4PXCbDoBrQS/1ouxlUkVjXxMZ8bjfg71XZDfSdJE98/VdZsMhsucXUgyAFghJNUbIXJngh0slCjxph7rq41GNh4I5gmaWOM8LcQkG4oFtZrW+BVyaCotNn4m+ZG3eMTwH+Nnb6EOjl4/wFecahvThLNKCAiN154AKLszdvvu4T8+ffl/E4wVQzGSE0NQOCIjFFPvuS+9/j72a37Ab63ZYnvO4icADANgqKCmoQ0LA3QadKvBixdwaEGmfbOBYnWWHujChlSM1ykrVhrw7oGcnu9pI8oqYnIY/Y6VEQWrQX67udDcq529CabLlR3kBh9UD50XQTS+sgsKVGuLK6G/kB8HeDpb0P9m+osaYl95UCad6apUwuWc/mB6zioqN3O+3uSdkN9LsoR73yQtJYRJiQErVCVNM09CpCCAvs9GrQqxALMlNSF+SEFmAt0Ieq8Ci4hyxbHHJ2cbVlDV3ZQYcTUjDE7dnpoPacM9kEYABKHc1DTyIU6q6Eu2sAhiG6DOJBYfdYXAbQRv5xKhpCLFPBD2XeguqPQg9MBCXbBghBfOa43WG5e0p2A/0uyP96zVeoesZJpEQoynOK9XSV+uOvQPo/4GUFJAPh2OrBmTULtxYmtUaBnlm9qPJDjRoy46JGgap4zwo5G6NpiWlJPzb6geQbJU0a/UxijaT1QDS6OamZwSEgHKMWyhpzjsXv48D+MvdBmofYV9LBSPuAx1v0t84DiUYokcFdWD9rFJaroj98VdKfA19TCiQ1laNqbGwYI/L/jtutzu9q2Q30OyFHvfJC6phtZddQ9akMdUHjM4G3Ix1cTNwaKQgFyS72cQsVRux03JFnC+5WfReWUwmDVbPsdGkz4lLg24jLjS4lsG6SesNc+vnFhg6Qs5xzJtG++hA0OpOMgjjr7GiskeYp+CHA4yUtQzoGfIBRr3UC5knINRCL2pGcp6KqzGLvDQ6vSUo3YgfABmOIMfCZF+8Ox+1K2Q30HZT/9coLCWPGjXAiVD2cGmx0fwWdbnhOAcrAKEoOxVtdNo8yd6tOD+m6s9NbLEqNoGrZvxjFPwA+J+miEHUZg3Bz6hk5J84gIEBwCFK2y4vzzO21uNj6+bpE6IBaPPsQCtAdIAFOEgr5uhEohJ7M3lZ6qq3HShwD2rfTSiAhJaFo0YBDOcP1En9G4oMOxono6dj0JgY0jfjcSw9qzYndspNl91O9QzGPf/WFpAYW7p/YtDpWNnXsgRMnIv1fwRwoDjgpJ5AUaN8qvCWNgDtr8qbzbifAlqqR3PNvIn1G8Gm5+bFDlXePgukeHqsr2baUCCBnR9p01XDxKw/l909fyyqu4OuvPvIObtP8ztu+xeK1G/jlg5fS0MOC0DkNrOJpt/IkhGVwwLXnqMeRoGOA50gc2KXgQg2S5QT0ijr/qSCf0CRuEIrgpuzOYNDjiyfsv6te5m+s7Ab67cjjX3kxxEGhQIEcsRo7LCX4XIlnFLt0IJTZVyqRry4odVtx7ELWdlZzZXBV1PcbhT9C0HvDpi2XeeG88qISKFZISUE2uDc54D63zOPaJQOmpzfskhTUY07/DtX8BRz20gP41jk/J4XiYZCjCE51alRlx74Hg556vaMQLwaeZ5gogG+Mss0gKsFa8EtAn49pmkb9IEiymakCX3zxgTv9Pn6TZTfQb0OOOPVCer0m2+NWYNpJ48LWsUj/ilgoUUsKRkHQ+cZKWGtWqKyNYxdkUyi8Kb65quz0Y8M7wR9T0E1ITK6+hjn327cSNAjPVIH+pmnoV3z5rx5zr6i6x5zzE2Lo0VQNGhTWDwoSSk3ThBAhBKjTvkT9IeI42w8sfoLa0ABjAIi3aGbwl/R7KBFxahg0qNfnMy/bDfadJbuBvh153Kn/RRwbQAo4KRJoNACq8CbDXxbQDiR6haHt1sLtYt7F2daFqdp8clTs12RRFW68VNIZsdf/SFPP5DBaIIJMFVIzNeBb//kLDjv2oXzlLx+z3Wve+8yrt7PVrDl513q0j3rjhczdbz/oj5Emt6LUoBAiCqZJyQGq0OvVafBC4HXAI8oTmUaqnKv2viTr92TfbFw5DeoJzWcyTPP5Pz1ol17/b4rsBvo28rjTzqcypCgwFZm1FwAfMXqaIJEzzuIwsYTO60YXc26948P4d2H9WqhXPHE/MnpbLzYfahwJE5E01URLKc8VPXCNvfU2VfKFK1YxzgBJJERIdQSaEvJDKbLm1HvGo33MOT+hH/tEzLQbgoMcCJHYNCROfOmBnP2elX+A9HrwwWXwTQITRlcKnmf8A9tVFefWgzQFKfGF4x94j1z//2TZDfQRedwrLqDpwcQkDCoqmxp4WAh8GnSA0MCiojOuc2FJlzUGtKRewO2cgCIJNcqF5sFovaQ3xiqd3aTYRCUlQiCoqT1Gr95Eqia46I3bZ+9Wlp1xFSHUOSHeaOWPT/NBD/tnnICQ5xUEa8NBcOI9+6p/+z2Xc/r3D+A1j7qSAQlM/NyfHtM88z1fBIVgNycDf4XZCxgIeogZrOcan4dThVRn/4j5/PEPvkev/3+a7AZ6kSNPOz87y4JRHSqyt/iJBH9OYi5ooK7CTIbih57tYMsOKcjqfPHNSarJAxmk9yH+jwg3UAGNoqWGFMAJ9RoueuMdeMiLHPDuy9g6szDHziwvmJnklv74qVgfSvL6AMFyEuL6k+4dFfhpZ/+UWFVYkOqGGGOVoM4FfF4C/gvgFWV35/Qffk+kj5AUCc4efrMb7HdDdgMdOOKkL6JYCjqaEBVoLJ4v9IniVa8lVwW8LaG3zrWisauEm9RltTo3gbDkaLRScApBX8pmeaiIroEusH3Rm3cM4K3c75wfMlNPYETjaqzSzLuBFwH/OZH8nJv7ZqwJrSVxr4EdMuB7/X4uXE9GdoXJGXLSo7HPNhzW7i98sh1W2A6hSqlRQo34wvEPvdfu4ddZfuOBfsRJXyA1iVAFgmI0NAReBnpXIesaVBVmzsXgeTvDJJhOfR8t+a6NqmKnvyvJpwbCTM4FJ8l5XkjRfOUtj79L1778jMtRbGRjHD6I+H2hrcZzQCuCm5PloDrKbYhw7Un3bgba09/9c6pGpU0Wsh0R9aolk+y3bvwNwJs89GGeZvNOEhXzB3VqGsKWMc476SH36j38Okq4ty/g3pQjTvoCKSUG9YAQYoXcIL9I5l0FPQ1QtYxoU6LktBZ5Jy61ICVfZWCrAjZhftfohGDNAHEQrmmY6eWzjw3uMsgBHAJOoVTP6WzMFmCO8nedlBRe1yg4NMRUVVx/0gEsP+Oqu/x9O0POe9mD+MwJB2GZ/TbMMU1TA/GRV4xj8RYRDhV81wbMO8C/A9TcUlXx5jHczPCU9/z8Xr2HX0f5jWX0x53yJabigB+nK/mt9OAKXBv/DtJHCp3kRgtt5UmXyQbDDZ363jrWnScHVZK+ZfsFilqFcuVWniVMU1dc8vd3Tk3fnixfcQV7LLySjRv3C4ZE0rMRny4+BGMHoz+Q/SHkSm5qhcDAFetOvvdzy5/17pWk1AD52SZldX4wNR17Y/13AS8BMDwX+DTJFU2qlcD9wBdevluN31H5jQT64Sd8iRgGBHo0OUtrBORg0UiKXXC8ywc3neMNWvW99b6nHEGTLN6vMHZcamZSCFQT6tVTqcYBwni907LXlq24kl64hfuMr2P11v0qTJ3QyYIzJDWYaEiGo4S/ClTCtQ2qImtOvPfBDvDMc37G1olAfzIRIdqpgYDtPxK8nzxOjyD5G4aK5NqCBTML+Nir9723L//XQn7jgH74iZ+nCoGUkZq96+LpwOdLIkxTijGKKt4y+QjQAWfDvKSC0iizNpJej9LbpR7JKWZzIOG64pJ/vOtq+m3J0jOuZN3mvVk8fy1jnonJagh6m/DrkQbgnq2bMIcjryQnqDQAUzMVG161axNqdlSe9a6fU6cEdDVAAbuR9fDk9GVgD8ewnxqvsR2xG8t86eSD790L/zWR3ygb/ag3XkgklDZMROTa+FHA/ythsUaZBbuWaq04N0POe7XJbrZKQUYsnRdfYvx2O8lOAhoMkV0D8iVnrWKMrdxnwSp6qkMd1RBhq8PfGH3LGeQzkvdEfLZJLEqJxigYMdZPO/2a7qp89vgHMXX99cULZ9tubFdO/mFjP9j2z6jTN9n3Aa3vRLJ4+jt+cm9f+q+F/EYBfXrNVAEsQVaDtTfoPOw+0IAilHqTFtAewXsJgzl7zFVytmNOiOdYo3MxUa5s2xjqQcVFb98FTL7iKibSWpICdoiGVMtjWH85R+kXiIfnW3XPaAB+YAz61A1xQolQCtLN8jNX7vRru6ty0RuP5rwTHgxJ9BhAcg2uBDfNrccfgX09qy7/fEgmOSHE0dWDeNoZu8F+R/Ibo7o/7oTz8g9CdnLlOtRh7BtIh0muixrvkt6Wu6Xkss+M6qH6Xvok0pR+bBg9ReICRC+mMHAwSfDVfzxql9zLsjOuImiKvORCjECTFB8q+8OIh5f4X8JtTTq1Mk32gA/24uAPFyzcwg037anS75G192KMfXvy1HN+hgZN+zqiEs0g1FQpXgBcbPwmQxw0gybW5oI/O2R3LfvtyG/EkznixPOom4bxXp9B08SQPer/JnQc0sByr23f5mETGEo++mh6awZ5dryF8vh+1/BRid6WOVODPTbMoe6bi/9p5zjctifLz/wFJf+u5LWHIyR/UWY+0iT2RHEWDjC9AhaDa1s98NuRXo8JFsmVUANrX/6r4Zxr5Zgzf0TXAjN755JCxCmtAD6C/RUguG5SrAPnvfbh7HHuVeQcYLAiTeyXs7l1sQzTF/NO+TM5VwGXlNvcXT/hMAAZpYqNx+1/z938TpbfAKCbx73scyQByqmtQn+MeJ9yu+VYUl8omet0jRVHktfdOtdRQg7FRfd7Fh8Bqisnvl/vc+Mr6c+5mEtOf+Kuu52PmqU3XEHWN0jAgYLLJPYATdkeB64B/g5xkc1cwXGgE9oEINsV8HLgbKAan5msB2NikOaw7pRfMbCf8xM0UwwuFMBp8U1bWL/n3JeS0ieFbt4UK/1g4UKH3HiLnIpT5ms7ReOtCh4j5fBo++SgAzrBqCkpT8lUVVKTQihZUMZOoXThSq7ojU1jw41X7g9v/NWH0a/+Fd5NedzxnyVTcWE/cTDwnVxBRir15CN9GGc3iChPyN2nuUgsCp0KnGGoJlzVKcCAxFdP33VMDrD3GT8n0aNXTWECTVOdD36y0BRi3PaFxr8js770f0QGw/HAOZKSccBg9CzhzwFVwDUEBjI3/Iqp8Q99z2qWTW2il0ySwpymTjf1q7F+w/7/ddBDVy5eu5qtsZeiE3lGd6fGt0nLm4lxDvUcBXLz6+xXwc4t/Yg2dSJYhJm0WeM4pSE8citv2DBvXxZt+mVVapUS4MuO25MHnrWOxfN6rPvjX81w3/9ooB/+p5/h5kWPYPHGH1F5wHgzCLdUc79t9CiJmlwP7i7jZdh9tSNzD1srSzAg16CfE4JPtAmkkKqQx9fFpz9pl9/T3mf8nKTYctKTBF/OfercAy65ue4/cY84k0oBTi075J3VgF8veJtVCnTsScORgu+WZ1EDpKZi7an77/J7uT0Z+8C1zFeP9Rt+ydyF980vyCnUCrxg3dr0lUWLPGO4ud9njEQKikpeQNKeiMfIfij5GewBLJW9P/gAqSx+QfvGS6Zj7jACuYX2L0BrhFcbbxD6ie3/DpH1jXsbY5ppK5dIg0SIqiSabOVFbpxex+L+Ym586X730tO7tfzaA/3wV57H9NLEmCvqlTP0SLg1n4t9HaoSL096K+L/QxoY91TqRocMPhonp9SWd3PAwKIn6UsO08f02ZPaW9tQO1/9510PcoAlZ11FlQbFNtffAa+V1NhOCR4p+CklMabE+zEQk4LlZOkc2cfn9tAes7nW6LFC14JL/zZz/ZKD4Hfu2eEx/31rCHXAMdFUzq05UAzNoE5VH5OQxb514JrKi016hOFJQvcBfgt8AFZEHu+Gdq7UpUTtaM10ipMVin/VdMBvUybafTP+PSUzkLnM8B3BVxV8SRr4JoWcMdmLCxjUGyushoSrrX2aOQOafsOG4+7dfIVfG6AfddSFbHrwzWxZMs2CKxegalCcKxK5aWHXV7wmpLFqhpQidRPo5ZaEhxi+M8LQLWurpGgMGzbS/dxmvTW56aOuQc3BuNqobKcngEv/5X/v9PtdcvYVzN+6lSZGpno92hx7FAjOhmWSPiz7d5Gw/c0HHrT88CuuvoFmkDJTJecmkmU8N268qerFRSl9R9YjLKZlxgzfbWI8Um4mQ3LATiElrjtt15eFTnzoBsa2bmbDi/dn3geuyx6SQKx7sa5mmjzZNg3E3pJEejL4UMxhSIcKz+1sbFpwZvNKdpdbm01sRA6r0u7sdhKgXeIqmznZSs8xVucgS5Rpl+MpkwYgb5b1VeB88BfrevCTKlZgEeSARQpNWvDg+3PLT1fhCm568f67/JluT36lgX7YH/8ng15FcKKaHpQ2TIT87mNdhdKIqFvIILNXKolVQfUEqqqkgQLVBUKHWS7prW0/iPKiWwZ32+etLLQwXL9MNkcr+CJQpaDaBC7956PZ2Y9x2VmXo7qkq0uKefCbkIdvGa1O1geFf78A/QdpMDhk8/TatGDePlDcdWtffiB7n/GLMnllzaa115Ea2QmpZ/szi6qpZ6+fHCdUEJ247tRdtDDihWb+qmsgJBwqSEFyigGaBkyAzYsmNO+mqYchP9PoCYInGs/tgFrqjAR1u6icRRAdFWclPYM/j4xZLE5h+/LuO9C3h5c1ZXIFg0sjsOyjwQky+Ns0quym4zLgYyR9MoR0FRahkZrQBMtNM1MTez3o6x4HfHWPftsOyGF/9DE2jl/Hgqm9UTNDrx5IUpzxoO4xZpRn6pDf1EKhxYbHAg8yTAgviuY+KM0DPQCnPUQMwFxEos18U1l13MXL7mH+epY8IOy8thjidcBFmIrgmgAhzbCzQb58xcrMJ3niCTkzJA8pUjvqiOTY+MqiWw5Ajwj9/mMW9Pb9BlAZ126AN5paV9JXTXJofc1X51t1yMlDTAp+++Zm4l+qXnqFINSh2ulpc/M/ci2eDKQf3ggLI3YIpe9OQ7sQhv0QO7xg3k1TLwQfnDXptmKQJNzkqSB3mjdUlHUg1QVAM9jdliB1TO9ZgIY2z7k7fyHqgmvUqvUqS1VZEDBR2RCwnNOJyebSY40eK/nNNp8UfjfiK0DTb1BT9YKTG20VS86+ksGY7jGV/leC0R/14k/R35qIWyODuaDQSBCXzFtTr9uydy7uVkN0bzHBTwI9WoGHYT1Rom8YL6uX0FlhI3Z3qUxJ5DXGXBJgRjT/ToNvXTR59XEpZ2ZJX6nto5oBGh+TU5oheYJvrNj5KvvyFSsZHXfJ7BHF3yG/DcKqvMqJIDvjHgN8s034sf3tzQ6Hj9l1FZzbJ5dCNgA79IAB8BrgH5RbNUXnWe5a0B/I6WKEknpee9LOGYQL3ruaZo+59K+5kcHCuSg5Bjk1lpWhs2epUPsD7KMQEdqYtgYFw7E1XsjRztad0j2s9sG1qcrDybtj3SGLj+w5W0cYZkR2E4xHZpEurl8aeOXNRc9wicS7ao/B/irW26s6fT7luwrlGhJEkgasP2HXhzTvVaAfcuyn6PUblsxdz7pbFmMp5lLOkARMz0wwNjb5MEvPlfQE4HEW86AFaJdMkSTlRQCy/p2NbqS2AK1tsTy7Y+uIXS6GGmDriIdgaRp4lOBniBACyRKX/MtTdskzWb5iJc7GvwUHBfNBwW8ZLm2aiaMCM7VCCiE0xjgRPi44diRR5uNjlV+4aut9Wd6/LtpqFCxMVbzzy0HfxrqPRDJMY38nwR8FcTWk0I/Tabqey9q7Wcq64Nxf4liVRJQGhxBn5o03/c1TSCY5PBpxgsyxhsXQOs2oyYgJZZtal9jQm0YHxFZbp31rcGuAdyr2sOVXy+5t7oy6r2g9OL49kHfeOrVu/KwilD6BNMWuD2VdyUsC/A1wQamoqhyoy8/Qi6x/6f5363nfntwrQH/scz/JzJzEVQun2f+GPr2KmFJICmWJMms/An8geA5wmNsstJzIkkBNtscIGcSiLChUHG2tVd3e4XBllKFNvp2mjp1hJwnXkiqkP8P8E6WclQCXvPOpu+zZLFuxkr4rJeyG5jxJTzNsxswDPhFUv2BqsCf9amM0NIL7IL4ltDcwbXsM9E45nWYFmiYRK7VMtQzrPEmHGKbIyTV/GfBbaokAUaQmasAM81j38v3v0j1kgPfLcoszWCGqGTSuetyy556af/NNz8K8HHh6d5AojSCJnV7NKKxnA3v4n4rHvGwb9uO9NcAZ/n4rFh/50vaTDuSt38YMw3HtNbmbJrqTtW05ZeySpieIuZkJn5Z5neDnWyqYVzs6uIlqSIMea0/aNSvM3qNAP/R3Pwx1RZgMpKqGCWJUSibmEgXxJNBx4GOFJto+bEIDcppD6Do8ZPU6O0tow5ojI0TqGje2uY/tthbohctHc9ldbLNGchT63ub1mw5540dewD+eej6uTeqJb+xCoO+1YiW9LhjEgzAXSV4OTNuMgU4XfjWB4AaBm6RweMAXS+oZBrJ7hv+A8OYmNati1DzMMxBvBfbBmpSYsP3dLdN+TK8X6l5wUHACkwZ91p1259X2eR+4jjg9QMm4ClghkmgcRGhmxhx7f2LpNOBhGqKwoV3PcZYv7NbnH4WYPNzqbgTM3j7K4N2R22Pxrqve7HNsC/JZM0z5rB1Fnb3Vzqnt+tDQrrHZlEuKgmnDm26YE/922Zbahsoph0PBpNhj/U5eluoeAfpRR13ILUvWsWnLjcxbtBdhmqCYV9OMStjxGYg/N3p8q7sJDVDrdHEG9Gj3VVowd0pWV9MwaquP1pGPsvqIhjDK6i6Ub0kB8xTkC4AYKjUpia+dsetADrBkxUrGLBoRMU2CI4QvFlSIga2e4VWCf0bEbIhQ23qe8CdLQsiMcN+5um4dMAdYWJ5N7qNurzZ6AvbVZJu4UYy4Saw9+c6tkLLHudfkGrO5EU0lPN1EUt049lCjviPHgV8DOrDQb1Myz+M2p9rueNQ2oPc2G0fZu/1oFM753apj3+5fz94+PM+Ogbz79m1B3lnwJoNctBtkGuf2ZCC+J3OC8X/35oh6i4NzFIQQ4frjd57tvsuBfthzP0Yaa7J90+QQCFYTKmOHZ1q8TvD4YkcnlQXGimqt4jzrbOohSEdsrdbGJoO8BfosB5vKlhHn25DV24lfklSXFVQ+6uTfRY4pzGt6cSuXvPOYnfJMFq5Y1f08qptuPGk/lq1YSc8BOVHnqEidxAsEH8tmi3NWJzoW+GSOCMhObhB/LHhfmfHqcupYvqYmZ8MBfNfieUKrsHPyjc3aU+7cQgn7fHQ1t2wBpm9h4x4PYY+pa0KaaaxetFIdU6xeZvRnwIHlJuv84gjbDLztjkN3n8xG+uxNoyw8Okbaj70dNb19/8P5olXLhwVwZWx45LvbfRkFeT64VcG6kWfTxtyLmuguni+n4q3PGR7mL6p+fFs9GEAirwykRBpUrDtl56jyu6we/aijLuTQF3wIeollN+wByWXAuUEcmpI+B/4s9uPJs1yT/eGdjVYm3eIK8bbW0VB12naYuDhOulIIGPnf7Xlbt+hw8gCb3LfM8FdZoZRnBpM0UzsnErl0xdXM9VbmspUJZsJcT4f5TDFfkyw583LWnnQQUzL7z2zl+mpejRwlPg76M2ePe12MlQ8neKztOje5CAHr/ZaOtP1121XpxIJt2e7Z3Ai8tQk6QqYDOZDXSrsTsui9v2TjhmKB9udp4dZrIpByTws9P4Xq+6CzhA8UrmU3Ms7w2yMAACAASURBVJXsmL0os/6wvb857FmSWLI63AEo29DZs55LicvE3Y2d8jn53bcgb524MGTlzNyePYO4BXk54QjIZ88xs0HeMfxskFMG5IilqJ5yTgPGbx3M1OcRwkJyC7CqNP1i+YrL79R7uS3ZJYx+6LEfwalpbWQZgqQmEOdb6W+Bkwu4mmI3Z0gxkpwCs9kXdzZ4tuaySTeb1Yf7bcvqrao+qxf7kNXbtlG1cmPHc2xOBOKMY9OPDV8/62l3+7kse+cVrL32Aeyz/09oml50zj8nQBBOVWOm+hVrTzyQpWddngeJTSUHZ8v3XwSnGU0LxgzrjB8LXI2JIbfDSFU/MTMdjpQ4AmkpOaf9p1L4MviG5ETIC0OmolBy/Q6q6wv//Ro0XaCTwZXTiy0UONLSm4GjS5RqQNYoyizibYJiOyZDLX32gaMaGZ2aPWTg2QwOs23xEVVeBaSFNUbddurCbduwdbufZoPc7WTE7HNt49hzJim1K3bVmB6wWnAs8mXYlers/AVYc/LdKzTa6Yz+6Od+EKnJoLRiuaMG8/RE8wPg5Jx8SE0e4NFuKbbNe2BoZ2+jJbXSRTQ6l0f5vfu8qy/sthYt67ZY3eTmEzOIf8wt4exv68mMjY3tlGfzkFPexb4H/JjGMThX0h1q9JQkpUYhDmJEKXd3XffyAwk2waaxPDVlesy8wtYnhcdsT8ssFXy2kecZNSmzUrjvfYTEpcA/yn6t4K+BD2PfAMSQ1ecEImkHQW6z6F9/yfScfi7nFHHTS/cBqCXuo8D7gEuwj8ZulHPme5QkQ4ucithGP11e9cjPuo2fM1u3TjV3f8upO+ZuNTy7jLBZDD4EuTwEsGEEuF24dhbINQvk0FHP7YBc24Cc2TZ/6x3KhG/3wAPhfW2+4cTzsOpUhdiO6+UrVg7H+l2Qncrohz7nQ7hJVIsrmk0pt1AeuFI/noE4IX+hBpkF1JV/u3WdlwtqLfJZIbH8WPKDUqcMDW0t2p9VbKYdZvXsA5AGNj1J73by8UAM31PDofC1s5++nbu987Lvh75NvWF+AJJTeDy5RHQswW8J/RBadjQDBW46+cDSZEKQVydOyZoX5R8I3R8zbXkMc/7C6qanrp9eTBWtogAEKCmh5LxNSYmmsVLCseL6U3aMJfZ47yrCoAAtj99g0VTzp6k3j50KvNUwn1wflNtrjVhMbl/u6EAdNZx1W/9rZCIfnmPbQTvK3N2pu/2HX9KxdgvwERbpbHRa8NKBs3PWjgB/Fj9sB+SMgHx7Ibr2e7I+lfVR27VKtqrs0xz0TgZIMWFysO76O+lHmfVM7r6YRz/nQ1mVS0IxRaEGOBjxAaNHgpsCvuguitWhbZi4MgJcGMa7R8NgwyvX8KWNTgDl925HlYc8co6RSaRci9tZ5xDE94AwOTaZFi3ec6e1Z15+5srcfx0OF3y9DQzarLbCY+20RqVLaxCsCQfCnrD3DZcXFVEls81vBr2hZMQZ07N8brRfMp7E5pCdjws8n5urGabDcABufNn9dvyCbRafu5oFc7eybt1c+nMcSanJ7gAOB95hcVhxKA3AVafodrHNncwmjOhto+DO0YY2aDPyT5s13O44epxG/i0AHJloOkOwy5XeBuTlC1uQD882m8m5TZDn7+gU+bx3Q4m5I15P7bdXDgwqt2o+a06+82C/2+/giBd+lOnBoD2VFGo5xQQ6FvGRUpMxcE4l7R4hJXttlme8XFHH6tsyche/uA1Wzwe27vqsZI2cYwjuMgsP4+q15Z7Qp1PycwUh9khOga+ds3PYHGDZmZdT6iPmRPRxxNNlTyJN2P721jodORbDdBBBcsJw/ckPZK93/pJeNcApFeeZXgj+qKSUozdqihPxr0FvkgjJTqA7HSprZc/3roY695CUrGQFRBOaNJaq8A+GU8s7L3Z47rBXQKBusDPb5Bpxaw83sX1Cn3X8tlgdmULU4WeWHZcKwFuNO45G1EdDdkP1nREWB1DdBWtys47izCn/engVQ+bfMSYfoaRRLSVzlJ1y+peD4XTZr465D3lhf7h2B7WxVu6WjX7ECz/K1MwMxcsYXEWTlGS9TvBxoei8kF6vWDVduW/3MLaxw2eLZ40Sjb5Gm1JUAK0b1iRyA4CB7QQljOk24532OZW/2RNquuv7l5Aj97r0z59Bf+/xu/N4bi0yQQoBbW3q/vMx37WYIK8RfuicKnx0nhtmqJNLIu6yM69g/an3o72dMszXlaeQCzuyC3MA/A34eNspO/jumiz+t6uZvimSUgAcQ37ADeJJTdQPMadmx7gb2b1CRgbnJepo5+XWlCrKab5YKL6V1oPu7fyv7pUWtmzPk231XHVSHPT5QAbK7brzNeQ13SqgR47yCzSF2Sx7s/Emwybbm2RvQmwSviV/psnida+Qe8qaSnAGYW3UFCWhAC9T7e3Y5NsBeRkSzPpdefpQKJNNI/Mq4DUpP6yoJHrTPfZ5x53zxt9lRj/ihR9lanq6VYkDQameqYlV9a/CL8nOdhJSbNXj0dTUzuPdDoJWBWfI5GyH1bOLxMW+F+QBCFC1tn1rq0skYLowtunODa0dn3NTNF/SBZqZfHoaNDB3IaLm6+9+5p1+LovPuIqpQaQXzVgcQM6ub2mnDaTGUhV3X8Q3Je4LmgLGDWcGfEqUNZ2CUSCQCE0ghSY3i7GeivzFfCtDe8Vinc3vKPAVTKhrpfWn7XjSxV7nXF0gkQdlSrmsVVblyOmGUwr9DTBVZ/Pk7x+OpS5hqdvA9mZz38HoG8lyaye4oUZYwoLK/e9GpbaYFP4F5huIjaDrBT/GrIK0sSgcM9DWNWRQJlE5Ry8mjA8QHCqxl80DgKOF9yqe8lZ5GEgKznkBohCPs8F9B0zeTY0jtj1lyuh2TeU8QfbJSCsgVY1majWiimNcs4Ntv+5ScPiooy5k49Q1ZdYiqE8abJmh6lefMH4+Uo0dJcXMum2gjdl2Nu3s1ypsrRo/Ev908X/OPq7OJlSZtXOqSwNcD1xMDjetAn9H0lo73SLUOLjMH8PvKhNIqFO6pVfNI/QSYTCPZmLTnXome5+1kpSgoWHuWE00cc3G8WbZHtMFAma+KzZTxxT6TUgzFXCt0bOxLxWMI2awT07ol4a/j3JspCYlc/0p92f5iitKVMCHtwPf5jrgc+AjDc8QrFLKyy822vHXu+fZq3GvyUMsKdR1cIipRnqUA+/FPFI5am5bvTJPd7Zrfm8aHawj0ppKs7dtm/F2a+m4sd1/xEygKjrZAFiNOV/i5zj9F9KqfuhvGjQzye3QGp6z+7cz5TtDY7irYDVwkQ1BAWrPdeSh4P8NPIncxqtXJu6mgDwWkHvoXb99kM9yULob9yq8EJBasJ8ps8bSp2IaqyDVrs1+p/+EVa+64zXo7gKjm0Oe9YFW+Q4hKA22NlQT4ROG50uaMfTUctnQ61bUrtbQae9G2/w/wurd4ZKzm68ht3NqbfVbkD4HfBN0QUi6oolMhjC09bZvo2/jlFMu44qE7s1//T07bpvvddbl9FM+MokwrUGaSBULqpoNqb9cyQuRb+w7rJ8hcf1JB7JsxRUSKWJqKzxL+DOFoe38gn8f82FyL7gSKFRt2F/im0JLi45w/rzKT71pwNyetEV2DKIJJCabHjfuAKMvfvfVeO1itM8NUIcKqzYJBb3a6P+WsTkwVCVA4s6cHD2RvA1whlPztirr7Yi3+aUpx1UjJ9iMfQHofIsvOni1zIySyAqPqBRIdswBLJE/GLEFixE5VLfdqp1tWFYqplFQbNyk3BPAOVYc0YOxXyD0QtmPIL+kpJzCGgvIh2b6yK2NgrybWOzZ2/L4LhBQo5zclIDDSVxmOWIaY9bsQCegOw30R//2v3fHyj3PhEl67n3C+PmSBkiVC8ih9Y/RqviMJr506nsBNkPADydYKSm3YqjKPjXiS7I+LIXPJ6Uby9RQdB0phG5ZJWdFq9UK2neujiwK0AVyrvwE98U3zn7GDj2PZWddzZzpW5iuxkgK0aJZe+LxLD/rXceDXwIcLKmyPQ18V+jc8XrmfVurPiJnriE1Fi+XWSGpBirbDdIzSOlLlBGX0G+BPow4QKX6zOIlMufOC1GbUiM5W9Yz1RjrT9z/dq99j3OvymuVdz6qVIFqHPYC/7vF04p1UBuqoT7evtxRHhzxG3ebt+N/8ajKvg3FD482tCmiLh9qk+xPgz6dpIvk5sbsaVe2niEqSeBU0pmdbFJfsHorcUGPDSc/oLN0bk/2+ehqNlw1zS2vPYDl/7qKGqOUNT/s0EAdAWzWz9uTpbfc9EzwKxBPycZlBqAgdzLqbtZ3BuTt5y4Zo7Vy+HV1TOHhDWkjUkh2igSuOe32Vfg7BfRHP+vfO/atPU1URK7OtXix8Ay5eqqzSjtGbePi3e8laWGEWdvHkNV7SiG5aisvQGC0Afm9AZ1N0M/LIyAFB0l5iaUc4SXNiG+d/mEe+ZbnsuhHy7jooqPvzG3usCw7+wrCYIqgmEFOaBy0v5w+IHPkkEncqhbFMOGiZP2R8LUSUQRbTth/C/pzydOgMcMA+53AD4AjQC9VzkGYNJ7Auvio6x78xLT4zVw0/kKlnClCFQLXn3T73vY933M1MbUDjECd7F4w8GTgA4hlmIGlSp1tDN4OUkaq+8uW7m2PJLloCGUYVVmHAFfLusWklBLmy8CHLX0G0g1DDraKs7chYGpImwTzIc4XN//+PnfqXd6RLPrXq1iwEW5cYia2tk4nx5k4UY/XW8k1UH4C+M/lXH5rMxDkJnJtEK3EAW8T5OXAjgw9YmDkTkI98Bf6vbGnBxptnak9Nr2VmQVzue6E2w677TDQH/G0DwBT9PvzGTRTUaIR4e+B/yOoLUWGTrLO6u7GxSirj6jvI+xayk6RUVO07CDYbOkM0DsUWCMDgVD070TAqw9az/JVC5mzcS6XfuLOO9Duqux95uXkdRQVDQ2Exwg+i1gCTAnGC7C72Rk0k2vGWQUcDVwFVO956d/VJ537amZS7/2CF5FDkl36aHmWjaEhrxX3o4SeHMRajByjBzTcdOIdh9P2OucqqpTI6xMQk9TkJJrwesTbCjYHlnoZkK0nE4bKVmGmclejMgw6jcaWZ+24rSKf8jZXZft64D8szgH/FCDl2b9kCJAE3u8xN7LmR4vYcuMYm0/e+w7ve2fJXudcxQfH5/JHk7fQhIqY6pgrqJ1y9blfAPyDYP9ySFa9S4U67eu8PZAP7XWGeQCSKK29rddC+geZKjSptiKrX3XbPf52COiPeu65aBBwMoSy2on0YtvnSkrF71CmqmGLptajuAOs3gbVTV49pVcs+/cH668duNoIBVcZ3EqX/cdyjjjuOiY39Pnep559Z97TTpFlZ1xeRn4KoGT5UbIuEZ5rNCU8btgAei/yzzEPAR0neT5oEjxh6xc1HB4SNysQa8dmaX+Km+vq3Zg/LbN6q8pmPTWPgY+lRn9KYJNys8wkiTV3tKSSzdJ3XU0yzL/uBjbfd0kF1I2YI+mjgmcWvTFZpS9a59gY6txDXXQE9DCc1LfjZGtt9nJQ62UpTRmcNWH0fcEZKVfl3ZTHRhLOUYogO83twVSimqp3es32nZXF//ZLqpkptv7XA+k9eSVVirH42VNtj1f49cBf5aKb3CegHOq2JnNbkLONF35ke1Hhy9nyLo/F/DcQldykaK497SHbvdYdAvohT38/JYSbmct6DOJrSFE4Zb2lzTttVXENmaxj9aGN3GUOtzuoNEFEUWIl4jSsLxSWr4yaeXtNuj+xBzdfM8llH3rBjl7+LpElK64gkpkGaTy4/rbEQzuQm6+B/yBIq/K6n4mUwkGSPwk6WJDVb3TB3kunnvKzX85nwfggNMlpLIhGHIt9KvBopHHMVsQ3sVcEwqdTxki3uFAisu7k2y5p3OPcq+hPJYahL1XkOvZHEvi44UBgIFQVT7qLv6TTyjvbekhK3Y+zVPcO7yPvp8tBQWQ1aERF5/s2f3/zn97vg4veszrflR0lnJLSQ55yOZdffACTm/r3KHPvqCx5z0rCIEKdcA9EiE3dNDEKocONPyBzALm+o/QQyL667TE5bDuyi21PAbuoc1hR37vvNx94yHWH/wIb4sw4iomrt7Pm/R0i5ZBj3p8HR+hygvaQ0/cl3Y8c5qqk0seJlpTbaft2Wb2dn5RtcVdlgngXqTqVqp6xiUHynE2b083LFzFn0ySrDj6QNX9z2N14LTtHlp5xOSGUMk9zKuIdGq59dv7GCT9t4RQpoKqonUrWIJm9ovx1iQNB2aGG/iLgtwGxRmmMRA2OfTGYYbnQYhTWVam5oQkQCGpcCs/Iyuya24mnLjl7JdmyAuQwkFKVwEEvxHwwq8wMio8FWsNKQ3yOOIe2cajB0ITX6BzQ/jZquKfyt1XRL7F4e7N+6+fiXnPYsnEJcxasrwg0Mclz5k+ydarP+qv2+7VY32yvM35B7OXCpDKlxpCokzxX6P3A89usN+zQeS22w+QjBhNtk8su5SyfewDqCf8FDm8DRxo1DjXXvPLW4bbbfXqHHvPvpDiDGYdUB3Kx0ydBz0P5i/KiZcNM9TYJpiXqUVbvwmcq9UB5ybOyzBED0J8Q/CFRQUhx9WH3bRYO5rFk4xzW7ZHj2pP9aa559eN2zpu5G7LszMuZF2tqi+kUz5f85JLqsN7iYMFaTNULTT3pRD9GmjrmohV4iPA3JeYD2NqIeJjNtRIaEN33II7NDc3klqGG1G+SBpHQ2E0MWUmcqs1Np922E2bJe64izjQ4CIu8EosrkN9k+EsAROvpLyNt1J/evt0hJQ8ZnBHQd/66FvitHd7+Uiu/Zww/k3kLY4P/8EyPwXU1vftWMaXYbLhyEfP3vYmxubD+T+76OmZHvOpSvn7641j2AHjg711E7PWLZV9IJxnHGRTyDbTRoLtd12Cz/MzLqXqBVCdSru1olITw643eVnSdXPxTcpi5DZCXSgygNe9bvV2WCchbbR4GvhqkzVs3eN6CxVyzTVnr7WZUNErkFOZBRaAWeinwPONapspY7aaY1qnWpf6xDZOXHUs0M6dtGvdkXQV6roJ/kOSInQZ7LWoWTc0JSU6T403ruLx7L2EbWXJmbq1sIOaqmI7A1t1BB1TZbJ4JYMZU+f4FEhh9NuK1QDx4yar6h+v3I6ZIQyCGpk5WT/DTZL0C+DfhafBCrD8U/ntMCE7Nmj0OapZtuCKvQVOuabrCv/2405sLvn4im+sFrD9l/9u9xqVnXYEmE47C+X3Vg6rp9+rwSeCZcrY8MBXZzZIJxB6ZqDu1cRZsbw36FuR0HJUzZ1RjV5J6mBvAb0oVZ8eGuix0E3v36zU3vWHQLH2bWLj/zWw8YV9u2YH3d9QbLyQMxuhNNwz6kKqYGy5nhURPfMM3lP3jY7gGSqNGp7ICTN0PI3qIwX7i6y82uUUtsZnhvt/fwOqH7wXzvWOTgMT1wNJ3X0kJwTWCkJd65W9lXw/8Gy6TrhRpl4poTzHC5O1zbRN/2jx72cHSADNH5s0OepFwiOzVhOnpW1/WbV3vIU9/X7Ys7UBeheIBCvzI8oRQMgotYbfqYxfX1DA8sA2rlztAiBmhvuHrgmcj1iOq8RsW1zc+bk+YF6Nxk2CRohWbeFMANk5s2SmMvuzMlcyUhzguhYGV+k7asGCht75oKUvfdTXrTri1rdPK8jNXkmyMx6LCDyUdlGddvSvIJxhiMg0Sa086kGVnXM54b5qtgwlunF7E3LE6zNXG70s+uGDivBj1DAnq2lx/NxsNLD3rCmyY1wS2Vil3zYnsi/kM6JGWsz3eJW5l42uUrkeLvkaTG1pDu2V66JxtnZtdnSedWAbAP4PebLipSSYGopvYuI7QS6hf3+HqJUe86lIm9qwIVWCwJZHzpxBWsJAHblRl8zdfv7pYf4F4OdPQQMmXlot3RgyVolmniLGTkyTfckNiYoHpz41c9NbH3+E72OefVlNPTI26Ltokl+cLPlGAnKvVZk+RdEnj7eWqTACFSIuNX6wrB+AJwFeB4OlNid5crnn1wd213Cajp2ZApbk4TJKbBYTTDROCUreNW61jODBaFS9P5p3dIdE+8aLcz8jqW1zSzB07Km6ZbgSVe6ov+cpTePAx36/ANXkpnn0b9B+/WPwdHnjzIXf4cO9QbJavuCJ7grIuGRJONgskNi3aeLMWv/NmN2TP+tpTbjtc1QsR4+lkX2n7oFKcd3St0Ic0I6SZBu91xkrWnnIge51xBb0wYOn4jUHZU/91rIPL89t/MEg9YBDucjlKvr9lZ1/Z+Ui29lJlUws9HvMpweLsAVYvV4XQxj4omlZ3qjZmnWeCEddaOyo9ChnaHG+TK9p6RQv4ssVrZX2H7L+pQqBWbBpiIllsOP62Y95HvuIy+nsNqMZrBhtFM9MozTT/P21nHm9ZUd3776/2Pvfe7tsNDSgN2MgsqCjggMzgrBiTKE4xk0l8IoMDqKgvieIzL4kDCEg7xMTEl08SY5Ro8jTODA3iPCDzJArY0EBD08O995xd9Xt/VNU+5zI2mlf9uXCHc/bep6rWWr/1W0MFKXulREzfDkvYzEpeAdoReLzN41BBFGi7op6EGVm+O88YUeYm4Grhm61wN/YmspuVX546LXtUaOQmxvnkQ952CQMlmmHHBWc9sKW/5dTseuy8+rri4qQoN4MA50k+zvA5spAnQ1BfG1O5LPUe0GRXm4n8eJXPHpDeqeQ1wnRLVzCIcdGzPOCOOvB5n8S5HqUht+N9Oegzyl1RQoV49P5bgXbVqk88UJ4n9cgDaSQxMLo4bjt9TLNpGJVo3Co2e23Dvct2zkIuXiXzqsHybV862rwpuThYm6fnfmWLvsvHfknXbap+hhpbDkq2jxP6KOJVSv4mosXuCIFE4vYT7+8D77j6eoL6nmtvAT4otGB72vAOwfsE7Y7TG7tocdtwBVMacW9YwjZxvgFiEp+TeSlZa17ZpXSgpFGQuP1XsOirzryZ0cw8pXGupCSklMzLhT5ToHgn1E6IrlCN9VeNXf43KdkTY1HBSlHgHm86CYLReuDNIv6jQ4OsxjiFRg4BuqG563W7P+DnOPSUS5hZljd3TMrd+0WTvdSQehTRulWnx4COwd4PaV/jIwWzwMAu3VYnLePEp4DqDdaMdIw9D2wGX4S52ui7TlwE8W4IBAeSugbLdF1at/FGdlixJzOa4ZsfOPxB12an1dcxbDvaFVto79imdJTR/zD+G3LxSk9y9Wlk9lib9sL/APF1FShvjpa4CAjLmzvTFXd1UNyNBxB089Tf+lvifFY0ErPJzeWSdldu09uMacJ+sYsfXkME9D9TY8GZmu+UW91+N6alh4V2PmI3BOIew7/l8md8MB+SIP8B6AwC+xqtxwSX5P5r/ueBDzqZDzUevfoGGsWarxBuf/feaafTr4MQ3oh9dnY7vN5wmMQ1WE0hTNg8Pc29r11MDD363OtpgosfyqOxLpe0YyFGZXhukL4OHowcRi0mqqEhDpyJx32Ffyx7ChFsPt9IL5HQKNmPVNAfvfq6QpoAEDZ7eZplIw46FXxGCYvkVNZiLCo96p4ldb92ZSsUFDm5TXpHDMD1YBJKl1kApP9j6a0yd8hRqWmkqDS7/Uo23bOWu167+4RHOh7H/NklxIWWdsUW0qYZ1KTAOIGqEGZhO9tHZrTnY4G9MYPJurbqTAiS+7PR8sJXmqfiZFd4ks+ha/Ju7QW/fEhvFHwD8xWl8FmH7s6CVoJTUuyImztYOiWmG3PBBx7Ywu/8katpG5O6QPbRFY3fKfOXSJn3qg57jqVRcXD/+T1B1hW5kt2RU5T/y2qPlQjEudQ0U/zsTTkP/n716Ac+/5P5QVCTScHwZmB38MimKbk9mtT29cZ2hewUGLhoZ0Rwi30L9osbbYkkN+pi3PyMp3FFEXLJLwd9yvAHTlqPaZES4lcWcoCGVB8ojEhpt/dcC9IHgbNL4cu8xPaC/zRhe6PocpzO0vl5JlI280UE04OhJTVCd4D+tKzQSFkHnhfNU4xHM0QJNy2jgD2yvb2c/lVmhlxHDujfEiY6hRNPfMkj+myPWX0tzdiHDjZpWdiMg84WnAFYdkQTumCcjltSJFxMeFHYLsmu1YP3eNPlySgEkhULdBiQs/1eZPsPEXeA2zgYOInkxmzZcAd3/Y897iPk5lnvuog/fO8HYNOIZrojbZlq2mXrIUepoqRtbI6T9WnbNwm+IPstNo+3GRhH2SPhzjiRWwaXxhAeYLeCtghS6xxObG1a7Na5cCjIZWSWsHNeqyRYbvzbho9a8SqsT9ocU3iIOGiClk8RQkgsbAkc+dZvch/4AMDaE/cjdTkj1lJsHRSS/go4T6Y1zh1cPME9u6TgTAp5f8VinlBT9PUL5dFBuEuEQfDUWLzvJ+j+6c24k8haYifMW0v8Lrdr7kOsVZLdx//u66tncGEByXYjMzJ6saV1Fq26Ls4ddgBhYWO25PjZWJ8B/k7Wf2GaO7S8M2bp/H/H4Z4KQuneqUFYIPwr8BZB51y4NGNYkLSPnD5/l5aEmEoyENyv7e7tJ+1N55YuhhhkSelvgb+1mSIrjeUBf8OEl5AaIyJWMjo4oEuBAxBzhmmjNY+5d/6f1x6wNx1t/P6Vr9rqT7TL6utyQX7Wr40iybMR258VvNF2VI555lCOczPlPjfD9BasynUhrfMfnUnorAOMnNMflFHliFyY02B/wklPAn2p3EsSXdNFlMxdr92dOxahIvPMP72YF338Ro56z/f4+dyhYnbQlDNbotM0wGG2P0bydYLPGl4pexvbyXiEe6EONgObhtKGsiSj9IFcSo+S/GfK21CxTow/Vj5YxXYjGMglRd10WZHwKMt/JDjfyV+SeGHOJCYp0TbTUTYcceo3OfxNF95vvW49aZ8ecXREpWCcmj8w3KDsbkR6rqNgLt3HOCFpPgAAIABJREFUkld/vdTHyUY4Fil8fVkbxWHHzmdelnf+5EMc+Ny/444r9+bR+19fEkH018DbLY0gE3A59aPipIreH9RXrwV/Sblf+2sMnxJqSbGbO+IpaDhsbEcC+4MuM2zA2pPA3RgNmuiYAlf+6VO2evM/0Fi5+roKMVdJfEbiUNACuBSPcKekncHzNjNIn57Cv/NYz3MtS3q5WDfRmmnH1df3XEnXyc988s+45Krdv4g4VmYeeaZM/hrQjzB7gH+jUBz1xJRbgcOMfiEII9rkUcP6Nz98DHmnj19PmI+4CSVGrriQUjsd9A3yoZQjYFxNOGmUy/otItXqukLlhPLoIVv+k6Wc+JJ94HXACZbOKzug8Q6OaROEDmbuHfSkVL3YM//nJSx97mp0zXFs+vlK5SMLQiQAjZY7+ZWY/yFxMPRgqibblNNdJmJPxa5MgO3y30nOwRMvhkUhwvquScJx8uccEK6b2SpMuU3Ibj3ny7wF/KP8q9ggRzUj6GZY86H7Q/ldVl9Toos0sqKlQ3C6tBBvnvDJ+1Wpz/0AQp6jxLlBxV1BPM6w3qCZOO1r3rLXYkE/4Ni/ga6t190J+yqkFYUhFsqgtPptPSf7wL56MRPqnPvF/YPtPzI0bWjjpucdhtavz7orpVmJ7yP2A06xOQtok5pOIXHN//z12faVq6+r6aJPEXxXUsiIlgS81OIyme8LbW+xIHva6P3Ybw84jNSmLrUMFFl38h7j6557Xf3sIaG0MQzaFWnh34HfKHknI7KVL/OkDrBz3vO1iBeCbqSEXpJg3cNUnkEW8nZzR2oDDjmdVfAowxctHSx7CEx5kiPpN/IYv9fhGl1jsdCX11eOV2Tk1ZaLft7Jfyzpbgc1MkkEY+gYsv71i3mGo995CdPTm4jdFF1sRXBQUiyysYuCX4f8WqPH9NKZz4FvyuzVoM44kDd+4vGnmdBQi4SbPulk/BuP3znpn/eEX68JVa7cR7WMFYu6LAdl6AN28y6pm7dT2w2brhnkKOO3zn42k0pl1Zk342YLJXOhdZ7X/yX4c6yRYFCT2ycelPsKefXBCs8SS8ed1wr9HaK5fbg2zr39WWPo/sSj/nEiSAHCfyKxQqWby3hfjBnM7EIsUqrVV3fpWB0L83mbHN+oYIJIbLibuGkDTRyp6ToU+CR4P+yriPpoefgudWLn4T38d4zGMSmnjvzQ6AUFxd5ldITkLyjpZ0a/aRwF00gj8GkWJ1mkVl37hGVXMtPcy44fvXF83Xa2upwpkMKytNBtM928GHiv7Wh7CtUZFM4nqAxAn7H1DFs3YhqVBgsPwFHdb+xyzvVMj+YzraZ8pgfwWOc46sHA0FnIXZhZMWGtSjIzfW/1SYZXxTfPNiLv32L7ZUYyrawRcGLo0ksk3Y1od/7lbGzTwMKsu+3GRUJ+1Dsv5Jg/XYOCmR8uoYtNW24WgZ2x/kohXYH8bsxjZHcysTxOS+4BV61XSZ4u+4/CDVVSrfizxUnvoa4LhzRG6+XvRZnJYyVQhHmsJtzzFqpCnu/pNrPd7gqaeVtQ9xPgGRLd9EwM1Qk6/E3f4NBTLunn5JZTd8VTDZoOkBzDQkfo/L+xrpUYuBzK6AkRfxAhL6Wv1P+A+P2QYDAKccfpndj1jGvHKubA534Cu6nKbSnB1wo9xqVoRXWDlCtlBVISEiZ9umzVXax6gVp6JfZnEC0pdvOHHwAxNeSEkt8D/rEojLdhfRBoB267UdNx1a8J2et4zLlX06bEKAzyqSfilcC1gh9JbsvCdqBXAp8muxsqK/pbBP+HTCu5cwok0YfAHnXuDbTBNcFE9446rxgMSPbjJb0GcST2TqAN4B8B/yzi1+0GCuTOE5oeNlHmMedcR5jZgEdLsNvWhM6B/THfwN6R4mZRN0jtDpA3xPhClcbJP7AI0pdf9eG3jHosaCwuw/y+ApcRHVIIIFJy9hFuP2FcWHPY2y5h0GQSNMZA06bGTYq5E0zYCXgT4vXAinLferJLoQv6zTVprrn/d2NbWbo4PbDlLgpsEuIXT7j/Pr+l92V6Lsr96yeQzqLUc7sYxUFWFD6+CfzNxgUx0+TsGzCpWcqlHxqH4VaddTUlF6WGao81fJFMAqqu4kMIef1MWR3lBxwCTwBuADTVdGPu/HnHfpjbR0sbcDT6PZl/LMUmTR8o64W7TEJJkbyPr+6ytzrJLdIXRfoN2wFPp5nrfsiG339luZQf7RSustgBuJOGx2PuBDQ1av2T0w/gkYzt/uYmFtqcA7R8fgE5YQVu33dP9vjB97hnux3ZYX4LW8JUSKWdslDThhQ3aAmzaa5W570N8f6ah297wehw4R9QDj6krModVdg/ciOtO+x8zlEbFDJja9ZOdaxcaGdSDKO2dTQiKMoOY7MReMjCFIBVH76OJ35vb3566GUozbRAZ8JB2F8FHpVTInPrqX6R6Pch9Re+D2zw+IUUr3BsyqBDastT/kMX9do2Z/S2MdAFZ1kcTol7/miP/opHv/Mi5jZPs2TZCEcHNdG4cWridIjtW4C3ASvKjTplYjh4LL8PgW3cuxn1+cejf9tEn8X+t6Y2AplI95lwgFU+fJgQ8ArTe395jGzHQlYIaCE6ZwYdzMdC053QDQcoOJBb+TK1QztOp7XZ9cPX4i6itgnk5K3PA7/Vh82Q+65SDyzkFCG3RLTdkrvHngW0P3/LE/KRzAc95+OkNMBTMTOMUV+V9NzxIldhzkq2nnTSC/5iX33i/DSB0oGyfoIIUzfdnQ64/G4ufu+LG3CU+Xuj1+Qp1kdlnwg0VhOtyNV/9tQHX+vxcrLjuTewbvNStlsxYiqOFHATnGJYssRxfj6knMORYrrXd6yd4hmrOn7O0oCzc2WLEW3uthq6YIcEfFjiZGp3VrPW+Zyzm4Vqf3ViowoPVcnH6WBu2RRZuaQJwtooxdmUMxWb4GCkRBPbwi8thBnuOuGhybdV514HoWFj+jHL/MRSYsozkb6S/TmVTVHdzoKR7usLjLOq7i/wdRu7p+lGFgOya/A6pL8vNaQNUkTGyax7/bgu4PC3rKGdzpsv5aZODdDRRJSaV1n8b8Ge5RFGGp/NVjNBHlDAfb/fLHrZIj1WXl1O5iVgNx7/8T4X9MQfygOMLXiJlJCbquSJzRz4OABfbuxaEyRy47pELhT6XCC9rHNA+VkShm+tfm7/3l3OvAJkmtBWHunJtn+sgmpqRevDCHlB13RYreHfRXopQvlgHeCIF/w5G7vdqnneD3G5cSPJNVmnD770HFv9TAVhZXBhUDmskNbSv8h+NdAMW8cbPv8H7PXeH9YP8zTgex7Xsx+Fcq7uXJhOP/vTJz7Qei8aKz9yLcFNVacEUtMRYkPxzQYtdB0JYQLTmiLRMZ8izX26BCt01AmILHh2MMP8yFmzSnM2S8A/iU6HSc2WkA+GTBKkREgizTctS7uRVAFeCKTUIHU93W3MVC7IZdNCesjKszpWffiactppwGmU+7rBcxBfxjQ1EanfnxPVZ2PHs2hhFm/4+1j4/Oe8pTrhga2rZV7l4J/kUGN15MEpsu6ETBwec/r5xC0he93LWpjvGjXEFAXmiQr6EFB39+Thi1thwccPtxi5j6WzSF2tCAuL3gNzxer+UnAZ8npgA2aBuonNtsB2hn3Be2ENjJdUPVCu1oGCq7MPtZ9bf7fCl6ug+nxUNXxOXnhZTLMEjXqU8a1zn9e/c9U5V5HWDmh3HjWCmBKfQXq5cGerLfxEvssDCDlF/ZSdJ0kbEbsD6yEfKsiWtBLnTLAO+TisBtXQTM6G9oTm630Fle+LVS+IyDJt1n/pfYUN9BWf/wOe+N4fMI5S8J7iHQWbq0aDJd9q4ojgLk159HBrzsoPX4uqkEOIiRREBO9h8XKH8FS6uA0Kd9h8C/O56NEdDrClWWDLCfdntnf+yLUI3Hg6bF5wGna8YskUlwBPE8whDmgIn92+3XTsbWlFGqROyuV90dJ2WJsNw4qVnWDdSXvc7z6PZKw65+q8L1IEpzY3j9QrjP+1uK9Rdpt5kWKfeu+6+t4FfUJxt/KoQj5uVVRCZ/n9A+BLjXiZ7TmgTaYLZR/ctvbnfXrl4aeswQsZN9Eg5rpgKYJmhN+LONVZ+OqZ7YPyqGMf/AFs9gMNTXoaeXQFcjfk7DYEWwzfV+6+ci3y14na4CZtMs2QpFyeOnkVGRxIo9io0VLsHYCjBU8Eng882TnhBuV2XpAbsZjqwBYhK0KunJijoezjzNQnm2bhj2WIbkgEDj3xG1z6kWcD0MYZbvrU7jz2tKsrnbDa9suNQqEP6/r0IOQ+Ql6od5wTmLzc5kjgC0AIhzznQ8RuhrR0tkttAPPsIrqhOCZU413V2AT1kYW7ZzSNTCyC/zmSfkIiqBmlpQBW1eBPA44lN9EH/MVBtyWGNGqIHTt3dz/kYu/w0ZtRmxESImDS9kv3IknvDdLlwPtkv0LSC2T/vvBHpXR5VHx8cmSbNPWA1mPtut5HTk1QMzOlIQovNr4ZeYmteUkvXN8t+/iSOKLJyD9i9mxT+uFsGq5uBCMaW2Ert+6Dj1XnXE1/VrhDFZRXgf+1rEU50DA3HoRxMlsG4TmfoQr9ZC+yfhTHzrnZX6ecIRYEf0EbXpTsOYtGuGtThxPc9vo9eyE/+q3nM7/tMjo3kGgUsHNH5Ge7S5dh3moTMpPuRvlopFpZUmMRTD73+Ktm5PWJOlnp2cl2l4lStzaN8a02/4B5ObDb9LbN0aC3AZ8AfoZYLzMsbHLI80Y7/lJDnqIIbARuAj5lfJpG0wcZ9pd5j+wbwY2hyWx7qe1y4e0LunZeNiln3XWYP3LSnzkFB1KzrLuHVvMc8+bzAbjplD14zGnXEqU0sJlKvhC4RDjIJC8Scj+QkOcbZzwWixo9vMyd2jsXdmR2ak7N5k0GHot8WHG+q9+kki9Q9VbZQExYdcoryIKX3/iJspXULt+FPf7391E9JUgc32cf5Nd8tXqWC5244C+e+ZACMO0tlMBIKM08VmyYv/48wTPLrh6Cp/K9asqwr7p3qKvVdCxr2geWwdPFwjnXMsidvyJyi32bxW9gfUti1niIeF2EW4D32jpK8nmSdsB+reHWWcXTjTT0ry7rq865ip6nS02wnJBPMTqzKN9ouVFN8JpoXtAXE1Hh7oSFXyzsLj67yH3bB86Vbq/G/FucmqLp5gM5QYRuMMW612WEcuSbL4JBwsDspnuwci9BmjCllM42fn2+tUcSrXONQw1N9Ld/6FFxYtlh+TlMDtkGw7zh88BnSenLCmFzvfqW2zraJaEtNylplcEhRYcmZU57ARRyUb5Kr9aSmVflKQBKoesEV1i+Qm7+EnfHgd5p60nFIartsKlYV4yrU2yaEnB+r+Urhc+ba2ZbOXbd/Hz/aVtHvDCkm55uEV0w/4Q4vPfQ8/FiZV17n3xCyHvePWTeSE+ZnoI9dx524ulX8+TlF+eGj/hEi9WSOptGqlLSP3r2NYt012/7dcvnwDVGl2n06IPcbEkKc3TbLSXtu1txk9hJ6Hqh2cL5bwLvRvElOuRr3vXgJNz2q69nabNAlwYCO9Isb+wLQQchalNGsH4Kvgk4ENglWQcEcQU5TyCtfYjDB1d+5Pp80JYTScrHPxNeIPxftc6+MC8fB14tsY1hi6ylxleOxNMCngv+FarQbHY95xpqiLvpFBxIlk8l562DlJyPASrRoWq1x8gqT8G47qj+XOXGFQLnz5F9Sekaw8slfiqrxamreVkzw0Hfi+zIt55fGjwAEEZdm9pBQnAM4hOCvTP3gqGkTlfAMQaDi6HzpMxr4jdZJ8ViS2ob6J+B/w/mU1g/y3kBCRTy+WjKrQKEWbZsPXPz2zI/P7MorPVQ45jTzyfeI4gtmupIyUgEO6khxOiEN98LS5e/HvggZraEZptShVZwErjKe25A0YDuwdrPTrcDit3QYhnf/kQ2brueey1Zr2DEzphrjZaNs+Xci6BdzWsR8vKhM4tiWdpoaZXMve2B21yYKw7yBB9QTYB6B2+8ILVQKX+ASV+9JF6NUxT/k6l1SdCmUejeduA9vG/Lbg2oC+IltmcRQ8wU0uVLdmjWDzeZtGDvnO7lmodYhGWCoadQKVZsgj+JOEhQO6vehfz62zYt+dxjls95lLxdEI9rg64ImQZM0X6IO5AbRXz8BqbmRkxFdwsz063gy4bjbX9cUio4+PXK6n8ovNRwEeglTWJOKrT0Ixk2jy1CDmgwNLEhWZyKOaPYXlP6jZXm2pQ9QE3syBaeRey6oGaxFmfPQkoFWA2Qv0pMxyloE6gdxqabIZKaEvYrUn3kqeczu2WajUsXINEidYMwRGreBbynWNTcz3zsqhUQ0uM+Fn+/eBb6DICcJBrJhxwC+glwbjD/nGDLBIIU+RCM5JGyvz0jLvrLox/R9NexuJOMOeat32TF0pDuvqclNRGgabbZPsbYfYzoz4M/CXqh5JTTxQj0SWN9E6bGaCR7BaSPSs1LjdW2jZPm+rt1wyED5UPuMWttvij8SvJZfe2kkPfyWIWcjORrhYlMq5S2B+4NySEbxsS0zbNLyKyhIIJCs1EKgibYkKqS6zqC7EFRA/+eXSnSzOAC3r/lADyIXaEuXlnekMoyf3f+zkSaT41130l+kJFoco6Sn495WcnUWmLzc8OhmM9+b++Lrayt7ga+A9Z0K05ZsZLRwwg6wO3H78XCzBIGXeLMv/tOJxjI/A3w7sLqJlkjMsSfMvzL3fesOAZ7vUSgBk23dtg89qyrqT7e4M5NTsG2/NYs5JmRyZso+1B9uKXs7SzFZfHzigB9+K8XLWVrE7GDTCNx7oj0fClsIq99N2gjSSGfxS1x5Jsv4shTc1XW5pkFlFwOYPSjCM2XnXhPRjmOtgf5lnYpEKmZdWOfG2qmW5+vLXK6YvHRO+ess9ZwNfB7T9zrPw8U/luLLWQiWSko7bpwc4xuaJS4+ENHsebMo1nzl0c9ktl/iCEu+OCz+fz/eiap7YjJpOSYYgemNdzGwMciv9d2kBVsYnWSeqWVhag1RJuXJKcXmpQSoZHMIX/0NQDWnro/O98UUCKUYNZXixRm5rJa2fta8n61XZS8ku0lhgMNBMlSMGq8s/Bjq39PTjWsG29s1SnwD2pGAv2iCoRvUDe4TKlBKaS5XX6bIKsdBZroleCDCylU+3XdVbfrnlz1sNO+4AkWB72isIQ10/NVgusEU8fe9lS6VNgoCMNR8r1bOt6/fi13bs3Z0p8z7XDIptkZ3vwnz2iiPJpL3TSwf5mMhDwwbmzeN0jx1dtuuyHnwuAkwbS2UtRtdjvraool1s1v3Ndxm6U4hLNkfUC1LZMdXBg29Yud16PMPbWctCrjcY5DIewyp9W51F4LTiD5DdtrKYggE0v0mbVvyPN0+MnfhFAiISbENA8Z7j/H4nLs59seFX3SuCbelsqw7Edm/N7/86L/u6SkyjiW/dSC7wS/ITSjJ8n80yXXvgaKL9wuSd2y5y93IPHP5/wel3zwSC5431YYiV9jrDnz2Xzr7GeTCySMkztwwI1kvQvzO0XJNi4EmlxpuupM1ygVp3tzx/zmjVEekGbGfd7u3DVh1Wo0fwU8tGgmffKSwlbU+oSQQ94Xdsw4ygcIaJ0UgCj5aMwAOWYmW3kPaczw9Zet6ZMqjmT25DuZgPiim9EIaNQ4zu26AzOZ1IgQXihYYhyVzyPD1tWFK/EV3cP34RJmuNCluS3z2mbFsscXn7kFvjYI/nYyYY4wXNJFRoPAuhP2rqrqkY2GOn1BKIJWzjTtF4GnIoaCqbKHTwzyR3ebu5PrZncSBamk1HLbRPHLg47Tz2e3s6/pyY6b37ivdz/rKuIgnC14o3Es3lIo4fE+z5sCzydaC40hvGseV5E4V8KOkcwAvBnxUltfxTSb00IqUJmpqSE/Pz63DD78lG8yYER0Q1YOiiEOUOBdhveUnTUSDAoU7zH5eNIfaPoXvaQ+6Ag8KGrqI8bvDoE7HRuAZtt2fRwsjV2cE8PNA85/zlYkVP1/GJd8+Lkc8+bzGeaOk8mjiBRawadL2synQUHOR55QKz+cO7cqK7ODtaT97Rkt+3xybL7z0RfFqpS3LA9Mby7a21pH8I3g/cY4bQJruyp4Ta69KqTH3g7150IBZt98GyW7dNpgQsgrGZdp+An3ytWghvKHH9T1S6Mh02mqnyDLT8twRNEwRfa/rqt/XtHeulUT3bSB2WUzAqbrM4Bu6QpYnrIZteqTOX6lkYwDIed3NU+R039K2gWYJx/QMI/08oD/b0Dh2tmdnRlPMceADSft9rC3WHXmzbTaVEVDy26907udEUltOFv2G52bLoQKxip10gt1L+Qw9svzfEwIf1YO+W9FkLjW0kuwrxS0TIWOZJTMrSfv3fvjh73pmwzTgOVTG9k0WtYidzgspw3/ZvP8QvMnw4A+g6uSg/cN4+VnnPjFpJDXrL6B4fvgNyC+XfjlFodOidikyHAusOb/s+XemlH7xB32hq+QYsLuurZpB4J/tdlW+OMZxNQQVQXbrmEsgJMNn1cgHfa6L3P4VOSSc2Ht8fuy24euRKQGMTJ8DdiP7BIMMiVxXyH3WMGXVQAQ7GByf8SU4+DsXPpVjNu+ATUW2w8XKz9BBBRirrG1gLioKOiUD5MwtF1kh3l0+7KnlAs3JUCfnLOTEPiHf741veACg6aTm5CSdSv4KWWHP352PtB0TbpneUfoHpDoWTQevXodLesJaUTSDJYUc+4JC5vX4Vrcl9shP4rsocyAfmnxYtk/RG6HbrsaNb99K0pMoQr5vRS2I7hZmuZWbofbcI7MG8hKMNTIqBgf4QOMCWy7ondq259eyAu+K+55lxGbLnFILyKxAWgZ0c0+dsjmWxpuPXlfODn3bFM3B060HrJpuLQ062R/SP8m2I9cftsamhrn6aN2nowr9jxO3e+9gOfH1kh4UIzMn6ONf1Ha3TfODUu6JBMIrDnzVxPwJ5x+BSu33AbAKAxQGj9dpGHQjBDmlo2ruP7ch89UnBzf+vDzOfTEr+CUiE6jplEj/De2noR8ckG6bSbi+9SlJou6n6Wkg0j+ESJMrdzc+3pLr2+Z27NsYnFNWcmyDdyXHFfvPVci9jya5NqCgMeI3PMqOR/aV6UsTERZYbx2E5qjvHJMzFUVcpdTczsWTvLsiuWARDfA67bZHvOkvCmrX0An2PxIJnbYBpLbpmQ5frtcaoQ5ZNOMD9kw26FEgwI7feTGB73OynOvJ3mBtd6XLsyEbL1x0jQo0Gw0LTEFuQnyd51bJAn0E5uDZf9QuN1+tK6LubaP2x8iZDc5Vp15My33Vt81YFLwPaQm/D3mDZYjOPMnLkn0LpZb9CLiIlBVdHoP0FAybUQurElZyDnvjh2HRyhpA7m1UieZTTcPuPWkfEDfoSecTxO3UJv2ToUu+/TSS4AfGe+X/XGXk3NzGqgq4VYteS9LEwC+f2CEiTZWJu6+j3UQ5i/cbg+4wV28+IyjrSQGs2LNmcds1dxOjiecfgVHnnYhy4Yb2DC1LR1tCMkNCwsY03VmQNekGIKS2W3pzznitIse8X0u/cjzCY0IAWwSIdCuWPlGrCszU57dL40ZCWxGWWR5WZmTsHntNv01F3ZJIFKmoLhEopPVluyYQmxW4rW/cnHnVLcIsgbDmR8Tcr5+u0zSrmOGsJAoYxevLHzP8owphfyeVNbz+6SFOXcLKJhL/+3l2bIko5h2NpoulpyieLqgsDEo9ADiYYchoRjzTc9DHlK7jpj3DBpoQkxJYu8rDubRH/nZg16q9YiVvik/f/56FLix1fcznQmOQQpB+rrRCyG8AHEr0JJStyEtZfAIhHy3D11J643kKK+CrRTocBx8DvMa4U4QcrOnvBUqU91jfCj8msYMNpXFrnSNJROVQ1yN4Ey6eNyj75wCaJTzsElLxC8LOXnI8V9DU11d8uBkJxrj8B6Z87BaW52tQUEJLgQaBTBWYrYnAhdlttErhJHsptRyv7/55fzBwI/BrboOoSi1HPKGNaw585m/0ukpR552AdtvuQsjprpOyxc2BZceb2nD3QDTXefCHZE6t82gzZ0/fjVhf0FehGA7paa75zZjvynzYdnvqkGSYnKbLKR+sUdqnejCyBx6ymcAmNsdqEwm6ZeCoet80nvoEyHv+wp577Q/cWbuyctC5t66Za4h/gmlS0/9TFj1SsjVBc1RuxLe5TqFgJq2yWE7AIV8CIoer5x5lar/b5hKTjuUgp6tGoXO9ECEgbga69OYIGkBeN4wcnKXggOj9sbHX8SUu/v1e6sjdrMow+NnYD4Gvrply+GBIYOwOUzt+jh+ORywnC7JDoH0ZTndJhwwnRUYzmy3qAb7ocZeZ15OGMPG4BRS086TaD4neKnkoaxGNQ+K2mAk75b8vz5i0zOvkxLm8as7qzQYsE4QesuG+XmIdXMbmsAvX5+h6qEnfpN2aT5intwfMC0suZeYz2Z7l3Oftkhmw0tWSLUJ5av8oxf8RRx7ffSKBu6weJ7kt7P9tLMVd6c4IhkuOuOZfPvDv1qI7Mi3X0SptUQ4lLagCekAwxlhx50uFbpiZiZ8J6GzDXsBcUucCpduOoR5T3PYOy5+xPf91urnI8Ghr39KtN04+evG/+R8CEqsM1FkRUWSHs/Aq2o2wNxtjwFg7e/uBxR4Fthse3NW5ngcSyl7wxNCTpZLalVD7l6jUPTubpilk/742ILQb6Qaw+shfHmU3kfEc3WjrZhdkq8zZmCeUKx47M1STuMa1AttzbjjhD2Z6eaIhhJ/ON14k810tnKchcJhuZZ+0CYbRbPjx+4D42U1U/eSQlwV8AWC44EdBEcWaxQ23n4727SRq75+GjuN5krQCck5yV4KrDthK5h1spCnVF0uAgppoAVSN/054Zdij4wHfftk97WD9GXBvXlwEfihXkI7AAAgAElEQVRaL1ieqqSzqpJbJhn9NvhjOIVtZ2dFObOEbrY/n+uwk77KVLsBknCkda6e2nZmfts1sn/HeJR1jHNv9d5Al03WW29Ru9bkSJL6MLpzXNc2A6NvJHMA9tdAbZoWwjH78C0X/4q+OMChp+YuLtmNoTFK0WE6KZwj/CPBqUiHSNpL0tMk3ii4zNZxttJR21zS7BzuZPlwM4eedsnD3O2+Q8S5li/91YU91sGcVdRfDWd6DLwUyR10nkcyJIcbfjHmqZTMMsMgsVm5Nfg4E70I+NgMj1NjoaC7HkqobyW1Q3lBtje979dj7DJzvg9xWudUJUGM9RVGPnnb3eB36ouM7VCtksu1JKaEtivbWE8+/QdbNZ1xMMWArrSGSj+zeFsO/mtBOa/4PKPdjDpLrWVCN2Knj94A5BRXqY9C/xK4NnNeAOwuQZBTGG5m3Un7oFd+gR/uvD9rH7VPWrvjXl67497ctuNePFQa7eTY4wNX5gXJyrERTiHQRg2+LPml5O64rVzp0FJi4io8VNkv0Gxs3fPclj6veSlG2K3wOuAwSF8Atyk0CWMS3HLy4/qGjYef9BXsyMo953AsbakS+4Xg74KPcA4lDrIfXqigxXa7NyquvEGPLjJZoJzCGsjpx3/dxoXnSKwFtQoLHU02Chd96Flc/CCnnmztGLSjiniDcAxKu04pXgq8QWBLwx5R5r04L2mp5M+SC63iBs+2C+0UA3UcddqFj+j+3/7b57DtNrMYpak4oo2j75OLU1TAaPa8cuwzFdGsG0mPe/KXxhez2ULIXTPNLzLi7stnxtmPE0kz+doTQK+Y2oKvvXsx+WmRVWcRlULRI4uIubKooczaDQWe+Lt33QD702v8SdNelFKXr+Unl80RQhywNWOjZ2kUGYVBbJ3UJH8M6x8x00hzklZifzEmtrXpQG0js1O7IR93nLKymWnN7f++awfqJj5pKCiq1468QvDK8vWKia+tGHt84KdZMBM4K6E408XGMZ4Pfj7WCKm0FbZrsDsLNr2bpj42XtkR92S3aiKGNZI9EPppUHiKEt+Rab0w12nJSiRxy5v3KxDAHH7il6mQ7JZrd2ixOqNjkC+VeZzsEclTNZ2FElvt+YC6D3qIfh/QnvF8Z7uxPQJ+x/idF3742Lr3OqcBqZtjzYcWN098pOPIt1/EM95xKdPdPOSCl5QUVhpdIHGQxBw5tj1l+yJbZyN/X/IMZli2/GejwoFGXSS0WU2NUcLWjpklS5hZfhfDMGhHoUX25/oMoqKUTe/xIrPKSlgpDobjOajCW6y2e9etR3ZMCHkxnqaE3lyNs5SsUC60fb7yOCGjXlCTlrwSK9TNV5+gmHTVKiHx3f94dW4vAPRPWzRNtlz5IhKryo7B6rZqIjeevIotLKEhMVRLpGV+buqPjb9tvASYA57YNHwtBVZYdEnN4LbRNgohdx0UDOY6sfIltxwAHATqsmvDLRlFEbp26qEf5GHGbh+6vDDQ2ZIDkVZT8224AHyE7CHyIIPdEhDpIXlfpEC17tTfF+tenagSQIs5BZmvReLByelWcENKHWpg8+3cXJpcHHP6+Rz6+q9WiybyAQCd7Vdizpe9wqbDDFQ0jiyRetPNGCRml25C+EuDdAlr5NwM83abQzCftt0ccco3yl4RHS2XnP2sX2uej3z7hchmOi4w3y6RgjILbp+LtSdozniJ7VsNv6GmOVrym5eO9HRbf28xlS07SwL8p9EuzqWlOVNnKvLU131/q5/ngrOeydz6ncCOOTqir5FZ9nYCBamqbex9wnwIGlW+kDKzYeymMTYAk6SbxgKd10B1eVTla4ukGMqFOqiyXHCBxpRZ1RY9hK/XGRNzAkZYN5VYbn7aCgnK12JaJoNn4z1DEiEpxtBVoXjYse7EvYpVw1IM0zMLXTK/ibkOvETSHPbTG3OpzJOAkbFHacS67JuObLYR/iQTPRswXy8eZwqbt07xPNDY4+wrGCxQY9utTXTSSnf8ADgi58lrKieLZkwMYya9ECq9wp1McS0ZVi4VSqkIfCvxKQ3mntfQzot8pFSIAc3OcMubsj9+6CmfYeH2ITXLRjGBiMVX/XTx/UshSYHfNad1LOPU5Ay8SPizahI2HuXkDr4NHIj8Q3A71UzHUBTXxWc9i0sfoOf5IxlHnnYhfeW/1BRcmlL0k8EvUz77fQnmCieejvli2a/txinY3vf+MfZ/Cc+A5hCrhP+TmGZsR3J9Pku3e0RRYJqZLZXOBtIvlJUNVbyyEc357Mb7pEGadUhjFMnYMrsXdiaEvP4tb12pJ/kqLqqu6TVNlzaH/E6NiZWC2+vFod8TE+jWPbvXc0eZe0i9YE+8rmqaKk/FABQloyOa1tNqcQCe9Gff2+rJnJ9v6rcJqZF0h9HzbN0MXlJg/H6I79i8S7BLZ2nZB68KmMODuFTiKVhz4AHyl5qQ1gyU5NIm6lcZe3/gMsLG/Emdsw87O+0opfNl729rZHmQ+xYXAq2SWhWOFQRlJq17JWNcELRi3iwOSH/hGF/TjJYBKWBHyzAVuOXEGiP/L9iyTe/DxrYpWdn8peHsItYRcp17IdY0tuB5j1R/vBf8VH6dLXlycsIeYM675JznHipxm3Ict+vSJmIUa856Dr8OVJ8cbausE3Mfv8eBPy14d/5rn+L/WoLWIqacojUduyY53MVywqg7zvBjmyXKbaeeoiZ8ZlkzZLOmUg0uH/H2rQ+7XfqR38zilFoYxHuNf1TkIqms85g4K8RrJTPraDJCz9jdd2c0rboFqA5mhfF9hKYogrKH0rCdKWmrZfSQ3e5/plqU3tdeDBWKBrHFlOXHujpu+SNkKkZFycP4UVSTN72qizwjRWMT5tZOb/Vk3nPKHjhVVs0xk3O+SXCErauwlwALEktA7wGuXhLa7yxb0v4E+WJJT7A1J7HE5tYEx3cpMCIwiC13vHmPrX6WOvb4wI8IHuTaqpByd5Gg/YJ0scTjLWc/urqwed3GFpIq8Br7X2OBd8l4k+VIjkUjeB2JP8cNKZPXSQinxM/flIX8kNd9qS4w5Lz51GyM2OHvDe+0SaWNVO6X6T7jpsByxhsxb4weurvgU0zKFDuNzJlhMDzuiJO/RobAjpKJ3TSXnP3sRzyvi4c55vRvcvS7z8cWo66SFhyJ+Aa5ZfdLyYLfgK/uSN97lLbFMMQiLTQoFx81qW3nbL0YWAsssTSPePHmNL16mYe0JOycvXL4aWsewXNGkmLwcIDt67MV9zgIOs5m61mORRY9UuwwyMyMK9Wy+cx7YULIC42SxbHcx6wNXiioZxFMrBxQ0TaaEOpq1Sdi68WtL7DBgwI1dMgxHyp6occq15QP10zAkK4kjhxb9ndo9zBPescPt3oqbz95L8J4biLQJPhFZx0KnGd7uqSIj2TNSnq6pP2VD2iIWch9o8Wzgrkl4Ea2U4i9+7K1Y+8PXk7aKeEuQvDAYoT0RJIvlrSPyOeSF9qtWPKsDFXSGCs8rxF0UIXzhceWKG2ZyP27X2T0CUMTWlNLDmOa5ZZT9wfg0OP/bw/ayOeTJaGGGX8R8xrsriSzBOen6tNtJ5n0+q9aJFVtkN2wKBzK7n2rxVu6Xe4GOWBHYbokLl396wn5oadcwpHvuIi40BAXGhTc5LZdAvNWzCqJOU1mZqFbd18S4+c/9eQynyamFtkEHBXchpBuAb8Ye0EwI2uIdKLR25PlQWmAYG/9nhivscEs1KCTSvixh9o5RVa9a1ZHNqrFKWdFz6lUrkzlJX0Uq+q7rHrLT7cLEwqwzmG2Eoet3/f3Y0K+q8aZ+N4ux9HDYwtU10077AfvmfDX4SeCYS6o7xmDJmskv3gQRm0bUjfdLeDBI/ON1560DyJUwYiCJtgbBg3HIf0B8pW2B2XTUTDnwFZj8y9GBwtdi5TPgxcMm0d2qOM+778MBwibAzRuhUcBHymnNbJ2sMkHK+RkVtTTr+4Xq3jpi/3fjN1cBF5yzTHXbYhDkb8EqQ2NowpZ9vM3Pb4Pnz39j75CUMVRNJZjCh4kxwtsjgUPlXOvqw+mem/326ZswwrhXThjV/43o6ny59/FnCE7hJtWCpOwiM0yvv3h5z3o/G3NOPyda2gHJUCS0MKgAYhKCVIimT8ELif3Johl1wJe8un/9VPY9Qwy7BDf+sDhJBoK/d9htZgf2LyiaOFBzpfgr5P0uxG5VaqbbKuGYqQSbrLvzTJUozlVGI3N7claSDX/oA4LbzudcncDds67o4Ree2a93KsIOWVNarxb8r1Y1LDY5jEUq/adCU3OBIRXvwELGpBwytuXnerGOPKGL9z3c99GLoQoCipHjAVR4gmdBy/rHEioSW3ioHd/d+tnFLjtxNxbvKieGAIKwbL9j55qDwC9yNb7LH3a1j8Z3mV4aiC9WuYuclpolPMD3XnCVraAstnnry8rB/yasKFpE+4Sfp7NBcjbIXcygxJc6S35ZIhynAQzwWfk31W4hUoZp8RPEU9T8g9Jbj1a6NrSIu+mU57YK+lnvPa/WLJ0oXoDLVkh7xgi37U5wnhol3LbGtvLCqFa7IkoSwnqudidzKXKuQtrU/DobwP/DDS2Uk7LMJesfs5Wt3F6qKHOdcsFI18e9wTzqtioDZ2QdE8i/JbzgZktYyPzuCPfcdC2RzzzYCxppJbD37GGNR84ioVuiqlmyKoVd3cSrQL/Qa4qE7nvPLJXO7F9SqQmn5y1daNpIZHKU+xQBKnyYQankoVymfBCxlLjt9uge+ag8zRmj2LF1VvxPCtjFOiq2mRMMaJcI5lQsNd1RXabWvnkAgUWQXgqzz5m4V3p9wwzZuozXrv90/LrbQ/WzRMfPX23zA/yNUgVkPRKyTop5H6cqRm2jHocsfVj7Un7lIheXp4tw8ZAQ5c68Jek9A7ZvxOCf0/wXuCHNelMzifPJbPV5a2rzryEfd5/2diBjTEIOkmvFPoKEGR1wi05UJ7d7/rZJuB6LRZalAyhCott5VDNAPGVFj1d5lagwbEbeMgoRX526rgX/iHH/wck040aUk6g6cCPlX2h4UDZI1k1Rk4xLv0eHPuLY9RRFU8v6lZH7sJqS8/G/gIw6AZtTCXef8nq5/PfRbrlIdmkOzytp3XXfQbxLyF6p9SC5EFQujHBb9nuJA0wI8SjSJwQZAKpeapvZDCMHHXaBXz7jMOYi9PctH4HOocuKAXJq7Hehzxts97o5SasV282t3JEZ6ycLfJMXVuAnC+Rndhk/6LIWbAnLh/IvYoaz0rsVCV8HDPvHeoi4MVHz7IZMPPJ/o5Tofdl3Zlf7FDd70K9L4bwxbqPGb6C9nMBBRaPIwIjx3q4LQvTjHacbts75gFyArGd8tPJwkE5m/WINNJxjGSaTDI9+RFadYD1J+3NbSftjUIgDTYyzfJY/J6mfCmjNVogdLRWCrbNqG25bWu6zwB7v/8yli5sU1xShesePbRyeumbZH86C61ijiOrZkZokjzps9xKxltWxNX3tYvhT0WPtoK/nxp2L4higYJAiIHR7Ap+fuq+/bMd8tr/YMv3DwdESgxsdU7aH/ge1n7Qp9u6+HnqEVz9VzRw9SDqb6mOqumwW5l7sI7CPh97EOLCaNTOIJtvrf71oPr9hnJbH0uzO7LwTeDlxWA8J+9XknDbkL4FvLoE+9pshfgrw2+R1F2uXdvUCitw1NsuZM37jqYpsa5Rar1FM2w/uPcdts7AHBvkr7Uhap4H6R78ICPjIyfkFnxgiVqEbFkYJ8zALzKJhnb8hysB2OOMHxf7ASGxUnkf9eh6kT8+lkaKha6+fkcI6wmBfFP4OXhurKsqG3gfCN/roBrPrV+qGXZPRc0MbcBJHHroZ5jdcS6vD2D5m+UB2rGvnJNEym77y7Zb0gSHKMRl79mN/f906xMVJsfaE/bgruMP5Bd3rGQQIoNBiinNREvuktIwDLpObUqCtW/Yk9tO3oc7j999q6691/t/TDPM3Z3AjYPSfmuXgppzgLOKo5skmloU3GNd3CfAFHKl/93YockRNOwOOyhr8T8n+Y8XpltIDrIjAk01/OLk/fpnO+RP/oPAkGafm0GpdRbqI40vEt6RQgiq3MS1+qxg1UmG/T6C7wnj3tluje9K9pEoXQweoG7kuMD0/Fyu5vrvHwpOyJ4BHyiRShDgeTQBNcFdbLrMtPNvoLcWGegKTfGvSTwtoc7ko8YssrB/4KgSkrJn0pCrb1+J5LcavgOERvaW0fRWm/ODf/e8rJKiCV1aJrNnVuylCqzKATbJFxR5SPf8Zl7Lnz3hRpTXHpmDgCns1CfKjPEWVJK8+us1wxV+ur1m7x44/L/23jxesqK8/39/qk733WYYhlWUBJVFVhlBhBHUIe5r1KhxjVF/btldomIER8Vd0YTEqEl+GndxQXGJohEUFQSGHUFRQQUUcBBmuUv3OfX5/lF1TvedGRZZhCTUS4d7+3afPqeqPvU8z+fZqArBst5SKgRBfvNY/GwL9nzmtKpBYQ7VHiBCeDs03BH4OaB1S6/15Owf4lKiSOJU48uxd6btVpp9ydG5sMEeTTX7OoLeAK5WHP2LOg1h/yPP4Nw3HXTLtsZq8ctb9sktjvu89TxS6EHaiGKvMtRD9ypVgy+AH6vcIVbYobVzRlwYFINlTGtqHVh0rEWmMNpa4QLxDPCn7BRCiqYcnCmIn79s7+7eDnnel1CO8aA/fXlbwvuhWCcahxx66F6rfpZ4a4BWeS83WVTC7q/lsMonVY2pgLVYqxS4AOhJzVBOpP5yTv2Xh92GMz42jGMkGK910pfAzym69OFNYmvMdSFC49D0QhNsvztZfwj8ja15wST4BPDB4F+WA6GxcrTgyasfzGGvOgUw2y3PobQS7sUmNUlsVc3z3bc/5Gbdatx6G7xxffF16T7A1Dh5lsW5ZHMFdXMRucFyGt47u5d3/skfZJUAsHyfAvBSYWYMj62qTmcg5RiQ3JrqtOuaDQBVaEJiGL0euEzFai4KwMiIhk6F72x3Rmx8sQ8aownDqvJaaCYGrHn9weROSUQnZmU+Ww6Rpr2rHDhSasSK1ST+CFOnIRWAoznwtbdMst9WY9e3nslebzkHkQjDBVxVFXZt2LXvhdNlPxY0BALZm+EixjtvZOuqdKvFd3Z68a9SCFU8BFUya6X0EMynBBVVbNUILn353mMgN4c874RyBgea1I9kkD8N801nrbR2G+3WcgVjElutKTHyiGzCrlsSuVqKWUvSKuELsKsQm6GqRDOc4dT33U4gB5b1rs/V4rN++N9la9bgHYPTYYGEnGJUQzKOkxtRCn/r3J10EjGHtBPwZWpP49SQC39Qb8jdmgdxgl6q6XlI45CwPRhGmhQ49Z03l1A0zTW/wsrdDW2vcq6UMizeZqm0dRL+Cr04SwxRmNPe++hs0M9NEFLpEY/2z9Bo3eNlQ3kzkGcd2Y7lhTNKkIarXjaH62Sfa7GPINeMa1092kSqt6RcUXsKISCkhIlC+7UprJMbZwDR+FTiSFf4qO2/k6g6AdIJODe2ouSPOul+ElcjInYz6JkDVp/JWavvf0v2yK0ae775HJJd9hdhVk5TuerKo4J9HLDUygkl+SFdzKbWZVYYa1p7HNpZLUZaAbltVIN6whcaHmvr54LqDx9/n/oXX/kxNlz6yn3gFfneVq0+iblLv9xqDK3/u5F5DugjBpQrilbqcosZ/WjG7m30zCXmqSzaSJK7leTyBUAVQqoVzGDjJKf/x60E+eobUIxX5xubTdMkVNLL9d+SNwDTZR89QuLLwjQOBCXXczPBsUmN+dMIpwAPEJoD7usqfE69yUen+fmk7DTzg171HU5568G37hmAlc/9Ao2nUT/UboyH6RGFkwojcUksu//TZZbtmL3cu735HOhXNLlZ9TLZf1RkRClZOiLDFy2b3cZRB9mz4G+WGU1Vk1vK1sAvStSNKQFY+ZLdNljEwrcqfMG5wVECo8eQ+q9GqUkkVhz+76WbKanXg5Q4q2n0XezDwE2OTy6KQQZ5bXR3yV+aonfoPE3t7Cpohjb7HrGGC976+6n+ec/VZzM1kbtABkOjXMu8Rw/UHCV4Q75t1bJ7tPWXxrRiFW6jXZgs3Ys1XLyV5HSWVFzpPeCrKerJSl7AVLbrS794CSEkLn3lft39rXzqccxdur5dadX1wFXVA/QK4F2Fl8mHZ3cUlFsY89duCvr840g3FBoDOasUxkDuFuS3jnhb+Yrv0Z87OeudeYJCcmjSEjH94m8wt3yS+WGgF4emmgA3l7tpTgUeXvbiw4cDqhhdS277tCasGMwAeILhBxK7GM0jP8rD+ffHvl+iaNejcOpbPU6d2ZaDN/5Wnq9t2FXoQUWiBeczv3buYf5flk+SkBp1IddNMpEUih//IGBpC7ViMzNGuGVsuj2x1ciORmfZc9fQuxehvip3byjs3Y/Kcge18qjY6OOhmB3Yx6V7OQaKyrcnGu6Z405S6DWJbao5+tv9lrompmSE3wa05F53jCufHJXsocUD5hj+15MuPxBMI6gcRL1TYv+jfnc2/ncde73lbCZ6mYdoINR569QJ7dLz8JvCbyhaeKNcPLLVh/Oh6kJYFgmeXytHZp6/9kzNQsjKzRTgGNXxsSGxgIlYtZPpxWYxyJ/1RerpifZUD6GOrqqIrfeC35XPEGftrPjIKSrGIvWcNsqtPIFbzr0YUi7Em10kORnkMdUKicHg1oP80FedwrKJ9QhIhFjUiyY1Jm5McWFZX9Pzs+yx9jzqpoJ6UNE0ACeWHVoDe8aeDiBELIX5MNlyH41ERFzlpMfb3iAxKTQn9OLUhFc0g4hCV5vhVo2Dn/NF9nrcOSBi8aY8G9xzNvMotlsbkfpWGUjSkESYXWDnY76HJiJt/DvmkUV9r2lDU8f4M2jN6xIi3Wph5uvSFKp/XaUmEpzLO2PrZGCAHfOH3GVMdWKq3OcWXG7q6Pxsfzw5e50IdRDrT/0xw+u2oh6o6fWlXj98xXBK8ds3jIUD5ZRL9WQPDQ/7/M5nfh/YFqiVqCauzo+3/+tPZ9/X3fZ2+z5vPJs937YGh0R0ArtCSrKSzLMDnAc8FBiWfPBo2tO2tUA6qLQnbbGnWonZGskIeagcdgvo+cm84rAdTya7YWgkqKrAT14xAvlBzz2epnJrTkVQmgs5bh38t6BUvJ6hQFctN4Bb/3i+p3ZrtByucElXQHlzZnbdeBVqLkBpBPLZWw/yQ17zfZbWGxnUPRqH6Ox93t3wXKXUIws4z09MxZ9tv7cGTR+3BVLEiUDT8oaSHxFIBJJiSqjEfYbgBlEp+nyjPymH7ZTxeeCvFYXyBuyGmz9WrTqJQX+BpZ/aBZLqlL/juQXgue9O6UAj/BGLU4ziHteSqhA49TNPY2a4NOcZpbpRPagwTyy2eK6265EAHgWhdMo8xlUWLP5CWdJEE8i9lwWSr5J9VbcXGFWyaE+MLbncxk6XEthjjJ965bo9aOjXTRALg0CzYYq5jX0G82iwYGQdmZ/fuTFBayt4DOx4CF5p8X2sFUA9nIwyxGX9ARccfS77HnU6K1affWvXiH3euIa9jz4XVBEGglrthNU291bwFxAfxWwFqsnZWRIlXZQS7UY78Vq8IMVWp/Ba5QgdYvckfoNYJfOhYOJ31x6Wy1XZpGrIT165b3efBzzjSzkIo9hsxs02u/bpBz4P/Dl5I8mlq4toJUMW/UVSbwb6En/t1pYwzoE+9loSq8ihpZVCqoMKyD/0yFs970Y0MVA7BlCTHPZHfAv4cOiHc0F/LbOMTN56emIuGjEIYkPQ+YjzwTGvBI+oehU7bb9DU6Uhs3NTNHWg16uZnlyoA66C0onAXxpOcvKhkBtvtmbXrRkbd7mekCosVymHtbwUfK9C2gZl7qQH/DolXh5ylGS6atseVQm4m9oRQCGESIq9B0vs1qrP8lhwTIs9WmGcI1QL/3P2tkfsf4E9C6QUqgbtc+i/EmmiUWP0QeEXWhoK9fJViryS2qiKkoShETlXVPDiGrKlIPFQw7cwYYewNNX1xVy78jFMDmZZmJnKvcsaf8LiGYj8ffkaxSUBGTseSuqVnf1Kx/BumoRETMgOTukNFxFftRdpeeSHr7759vveq0/H/T6pCoSFAbnnPDEm13UUVaLfRP7O6PXANKgpTx/cxopm4Zcv2P2nYzVoVa1W6pdqUSmfi0Tguyg9BYergMqT1GEAJLjkVfst0p4OevbniT3jFHCOd68VvEwpfMXiUMHA2cbvLP/uwx1xymbEWycR1NEItdBim1xFXY+Jwew0Z3z41oMc4ODXnMpks9BWhBnvWDtH65KCywX/lsy/h8CVTRIh0Bce2HoH+O+VewQMUtI+Ej8DtGzr6/2Vf3g8D3zFd5kb9FlQn3vMXMMgVSyZmuf6jdNICuTesACc8o5bVpDy/s/4AsoFktpslW1BFwPbkZOIxk/4R1l8HYiIRhanf/SJ7PbW8/DMLHHjTHb7hfTvWC/IAo9eu6NYLGChbERMI1FhvxzxHqBaNx/qX71hf8L05LVZMGUxf275XKfqjyLlitC9AXt9lB6Vw1ttXqBck1m/6a9lbdiZEBsWejG3mWsS4L8SXCWr50zMtWxfGz9iWT2XPlJG76Lxt0ArXcr0Vo0Uj9wrMglxLrH/my7kUR8391295Qy4fd+wht3+/jT2ed0ZKEZU18SFYZRD2/mzFpqQeXETuNDwdtnTZDdOUAlozLZ4Xrc2vKmzc7v1piUtPWbi1EBAjsLHTio8CLiKrHLVE9dHGuCSV993Ecgf8OzjUeu1S/TIPbl3ddIPjA8FD236bVhD9tF6RJ62ykR7r7Rqe6eflcfKLrRsk7OYXZcZzE7eZiAHGNR9FJJDSACXkvPiryanGCNpQdLOFm+QuMDWe5B2RwzKo30zX0kNMBmCHxaCCcHhrPNz7MX3330Y01MLLJvcyOZRPZMAACAASURBVMZ6Ciwmpps28yO1+/uWgvyg5xxPNdEwP78tIgUlI/QW4e3IvQvkLG2FOcLm69ixVtMYiPMDAB4w90XC7LQc3Dj4Hpg/KSEPFVlz7My/LroS8mt5Lirs2QCfzW2/af5weSYZdcBD3s2gnmw1gl2Bi5R7ZZcsq3zVogQyjsL2fGi3Y9vfExDSIOB9jH4ChMQgxTSND92r/UBVJuGpFscpt2kKxXBtZU7rJcyBNVIDqsqLH7N4R0TnN5QDOSWhGHP8jpMkUpmgLhAl/y8Yy7PUzJQJs3DUTkp+hvGLkfYoz1IXd0XwSL1TURWhPadbyT2uALYWe2ZDTQ4K6iHVwAuS+UiZxuBSnVUxcskY6QbmoGceX34URCrlenuHIX1ReBtLQ6AnCv9UKP/2nBgpfDAu5NsvUOtLNTW4slgLhXgTi2zyMz7y6C3v9ls4Dvz7M1iq9RipIToqkRI7Ir0AeBGwS7m/BWAiT7nngeOM3nPG15ec84BHbvix5N3zn/icgp4ioVTbjoHvvi339DvsVd+hc3SmEnwNxCZxyrtvGchXPuuLNGoVAlVknurRFl8tSpKdS5xXhn9SqP/WyZInPVFXLMQhp3/ij9ntbecxnX7LfNg6XwOtBr8eGJJbHkFZ0m4TtpQpINwAFehD4OcDMSQ1A8xPX3c/tOv9P8lU/zdMxK2o0wKNhydJrAIaS7GDxxjYWwhuqsIXW1uWauWH/oDFS4AqoTq4YWbFvmyciXjDHNWS6ayi2P+KeInRAOi3EWK0mkpXy85IqkGxuClsfBLSv9n+mpyuQ5EWVwXojIA+UrET5Nask2xt82BJTzd6AjCT3+S6oCK3kAZUtJYuoKwwEvLIX57/Fd0xkPXnlMW6IvZ5mGc76HzneIWk4gBNqeKnR4zs8ZXP+iKNh2UaJGKSU0iSnmT4XCb0S9IMeBG+WwJQI62svbcx0I8OrlIiWtJap3F13dlPPjdxm4McYMUrz2LreF12XxAV5ZCSGgTJLA3i2cBfAvuUpxuQQVNSjvkUaFfJB5Vkj98A9wGuLSvk77xj1W1+31A8H7TbRDGbdtwDfJbEDs697qIg2Do2xPpv6rl7Eyd+WWSZOf2jT2LV6pNYX02zLk4IcHBamkK8WHB37JTt87ylRhxZpyy2bjcru+8Olfg+ELYJIX3/NfvnvwIc8uBj2FBPVOQuIS8zOiYDytGSOgX1ZtjrLbGWk3PUgO8L/BAIQSkpAStXYOVyXErznluyjInZwYkSD98i2LP0zMdjcTqDGpsqk8sCe52kk0BnYdY4pAtFXN/Iw5BcKD/1gKWI/Y3vBxwCPNDS0nYGi30q5xTewhcU4kCtqjQGdugCh6zxZehs96HU2lf6YD8M/nLgXm1UVZOxbhYStvnxJqr6gU/7AiE27REeeibVPZNSeIWkd7VupXKgjkJnW3qtc32W0f4+Ar3boOaiaVSS1uKQ1XV5zCaf5IyPPuaW4uGmx2rz4I3fZuurf80vl+/Okv4GAcGJRhGGFVVvyFOAvwFWlkcZlq1e5clWKppnMDxJ8AUgSqn5zttX3ea3vPJZX6TO5xGgKNwEwkQjn4HZzziH3BosvSmE4VHzc3ejP3Ftpwue/rEnArDb286l74Y6d2Stk/Va4TcDNaIqVHVLsORvbC2u/FOtjIWvNY0eLaRYNQ4KXPiaFfn9ALs94D+Y6s0V+1i7gi5CuUNmKxSyDl+A7bLptwz2liGsnXOCvyjpiYZQOaUhkW19Ob897JEtORSwU5hsJpqF6jSJFaCBRb8l+BhTlYujqJgRAtPkOC/FTuvIh9K8pNrFFVNYyoAUDVPdxbJ9Vsoo5cijkjfQqty06nmnFbcQaX9vZ75oUkUXTtn+U2WzHnghgU8HAilXh2kaMnN28RH7L9pE93/65wj9GtcRrCjUzAeYNP9h8fxyi8kQO8d9a1CNxPloX4yDPj9Ea23kiLes8q1N5vAQOB9cxeBayn7y2xXkm4wHvfrbDCaWsaS+hoV6QpLDMKjpNaa/VWCwLj0K9LfgR5WNmXCO/KMELlm8T+YvgWjRnHIz49Nv7jjoOceX7A2DcivpWcGUOdnwEMGszXQ5QJ8v+aNilsTSdhcXkIvd3nUeh1+2jm/vvEQ2DvKOti5G2lqZtA3FXAFGK1uM5jayLe8FeCzoq0AMMTRz8w2Xrb4fkINAWNLbiJLcVKiJ/inw7XLdRiXhvLUEbsi/PkbOtYiPZA35j8GPAVJNqACu1T049+hD2r2YkGIaxgUCjwQuNu5jBll2t0jrCC8VoilDXVSyQvnSWnhYjPJJzBLZWwm2MtoKe4ntKeWaakPkZhRj7qrT7As6RtFjm7jKyABvs/nK/XXciMxQdiBnSJ1IYF/Bp4FYKnQ0EkS8CcjNQc/4LMgM1k2BVZELjy2dNN9Efj64JgfAxPbMK6dPqw1S3PQFx+qCd0qctUtIjEzxk5thSjxMSueDK8UmS/LfM8gBTnn7Q/jBG1ewMJwgbG33fj5sSnJoLOVdvlaF9GjggeTy0clSTyNJA+bRyV6ScnPD23Qc9MzjCanEekIFoalcVVPmROAh2I3taeE1MvcTfBSIyUuzpTkGcmzCfOK7Oy1FKIYgQEcog7w2Cu2KjZQ9j4EcWWrIXWC+poavKjmEnpuUUgdyGNPsDjr8DcwPts21x62nI3/SVoOyz8kl6z6bI2PknDppmW9DnX0qSY3zTVymEPa12UguVWTZ6PB9SXUXehgNDWJ7Jf4LcSBoaFHlBDeN2KRiQbSSvdVY3T170fPb+8Xl/e1B1RGLebZLgNro8GqfoP1PK9jH9aZOWrZkn8iegPwsuWHAy5XS+1MVkKlIE3WjhqDE3RfWLmoeeMBTj6OKob0jIYdsnmg/ieMQe4KGygxsG3igsSkZ4yDGTe/2Odp1cfuOmq4Kix8mhZNQBjmxIW1cwhkf//2CfEvj0FeeQtXUnPyew3nQK7+NArGKTsNGDkGkhn0k/yXwbMTSYkJda7Sf8JUgnfL2B99quK986nE0/aoQeEIpVVh11e/36nrwdduHAyh3B37XwoTe2J93QlTNwg51nLwGwQjkwH3efE5ekVhq/otDsE4tu24UW9JijO7XYpx3gkbAYcD3gJCmqtRbWODCI0Z5IR3Q9zvsvVD6mSukKTfxxzY7C6UMcqtVX7PRfpPkXPlYVuEFHwael1CsEs3cdE21YZL44L0Zi1WIQNPrLVSDwcTxSI8r6q9lxxHY2xgebQp2uk4mrX/ONwz2zlXY6UMaKbydJcWY2t6i362mnA+LnHLbYPeKKv8Zi9fI+llIVl1lQk4J6gA/OWLFok104FM+Q+wHnIxN6MWU6iSs8EzgP8GVcmZcj8KndU+1yQE0Uu00BnhgNGWFwKNyVi0fgXQSolKPOsQhzfoZzvjEHQ/y8XHoq08hpsTGa7ZiYvsNRKWgDPQUoklJfyD4a/BDjV4Snc4w0iU73NO/+vtdbtV3r3jSCfRncq26fAgniZCw9kY+wbCr8EbMx0Fvs3xppnhcahAakjjjE0/urrnrO84mNnlDeohn5TDT01lC+2d3MrHd3owf4+4UeSm3SOkJPuJcLy9ePL+i2WPmPH68iTnYxfem+a2oUwVWdBPnbH1IAiur72P2QP4ul43U+mpb0Iz514tWHJVtqD8HnitomuiqtyCqahafdl4BmCBXmomDYb8m8njM0cqx97Fkh0GxGloYjhdIyHu7jVcoRmh3MObbVQdij9Txkf2R1dzuJCnnSrl+m9HVgT0znrVyFFrP6BzhRxmeBvwMUQ37wah4VqkXgXzVqpM48E+PQ7FheNHl2K6E0kIDWP+I/XFBJVTb7rnzd9OlmJY46O6ZWr/54gi4YqDkH2rl2PXf4HAQ6CSgSpXquh9pNvbvdCAH+N7bH8R33vkQZrZZRwjmt7PTKS2QG19mbuWXkl91sLY5UPiMkBJVarz9urW3yfeXklCtlZoMfwG+EHsb2e/CHGDxYuRLydopKPcBjYRFIN/trefQW4A4SAii+jDT05tk9rc9VA6kajcxWbJRhGkrkkjknngbDK/NApj0hHA2va5F0tj9j/+yz4Pei1LJHjV3R/xQsMxWKnScCjk3kh6d33uL5Fwm7aWW9x5iHYLSWTg3NiAJ9wJh5b60fmhBIMZE04B5hMW/gf6weKkbZ/t/TJZJrTutk+wtgdZJ9qKJlFMivzZyO2tcmo9YLVoirpytxe8gO3vuqnLhqwxvvvjlux+713suIZETH4NJNCb1xI+OGNlLAPd78meJ/aaAUUIEocYOO0r+rOCwnE+D1OZiFVPcI8Vm0Sq2v7f157qpKT+1rjijtcDhks+3VLmiHvYrJjYMOf3jow15Zx4rX/Y9Yq/hwivvzW7bXMHE5IKCrFk3aYoY+oM6BRIbJ6f4/tsOu1XflSV6Bk9qtF2QX22xC+bzjumLSmGuaFJRkOpq6Lo3ZGp2CT/4xJMWXWvnY77H0vnp1l9bGWqLR8p8jW4LjqwyKPJUbhW0/Em7BlWWX4r1fkGlFGqC+eHrFmuMwOKMneDAfff/lJXVhiuB9xcx2ZTvaSO8uo3Uou0GIudUChcESU2RSl9Jjnc3oTYhIghNIp16AVMbWhOXRFODFUEn2toH/MHCw1WZjaRrI5ULV6ilmWgFXL6PVrJTtAzRFdUrmkR3v900tpPdmsudgVQrd8QMygUXr0N6I/IeSMfe659/BhAn+lPJk/1kwUTaFOTmwKd+ipnpOhfsS0TnyWvAT5HS+diHGQ9VurCUUgOZ2sgsBG0mXBcy0R5uRfNoaTha4i3Xbs9hrbBKSucjqhDrOlQ1Exua/zEgBzj1PYfy3Xc8mN9+bGcmJhbAOCWlKSILcSLNT/TZOHHrQd6OdZfC6R97MogJi/fKeprgU7LmKLUIJy9f1oRhdGwqtvnJzpuBfNXqk5iZn6YoxDHJdSN2xnys7LncKSKvnDoSlc1APrRUIU5U07yfYZIjtWqxbnrLraO0+Fdz2KNfx3XX79SKvp2QLxbaynKSO8O7C0DZjJyDG5PsuWqodJHR4cJXkdsIN3nD9jjv5Oez4sjTCGGOlJZDGsRGNLkxOQ+0/XbgsFa4kQEfiysso7LzKRe1vnAKXWCLx+6blsPsXGgeBQMA5A4myqp5OQS4AvE+Iu9PDcUxquigpm0/TtXjR6++76LZPejJnya13SYSUlBE1E0Ik9H+R+BF+TtcKzPu5gb84/nHIsFHXtZxKd8yOQKGiJ5xrgwTuKAl3kJoGMwtYc2nHr/FDXLXyBL9nOPX87DXRq67rE+u+RcCJFk0VQp4ckiqA9O/3JaTTz5884vY7PG2cwv94yA7TU+t04a5ZacJHkCOhiuhroU5HXPj5tctSpMSw3qLfUG/UDYqEiQufu2Wcz206Qv7HvZP9O82x+DKmcLA8wbEUZKGxr02FvVGwa52n7XA75xYyuq7e5YuoAoradIG2VWCOtn0FDjnpBex4shTSamkeefslkBw0+tDveDHAS8D/mgscCVZNFgBOXQEWsfYtZF1+bELSZeVFBXPeOtog6ZE5VTtIlnUglNA/xZC9YXG9RwBUsrRbTHJhFwz+qLXLZ7sA5/8UaxJAj1SalAY5gquQRitQvybYDeXtFRQdLmlUQWL/E+n3Y0DHjrysGg0m4EcuBbrITkYpmShVQ2D2RnWfPoukN/YWPGkExheN+S6ny9hp0M2loINue+UHagFaz72Jzf4+Z2P+R5L5meKJLcWJvD0fJ/E4HjQE2lJtVZzHOWN5F+LvZ7JaCflrMWnyfoMUiVUpwAXv3ZzlX3sGpuO/AX7rPwXJduWZyqFC4Tu6VycLroYxONgz+rylt1uNwr2oEco+VeG6u7sUl/NZTSCc7/1IlatPplrm2k21gNm5u6JllwZJqbkwXxybqmVHgD+M+fJukc3K4UozKG45QzNYlstI+/8hu7tyL1xu72cXrXxGsSXgM+lpIsVM7nSKEVEavo9VxuGEOHCIw9YJHHBHPTkT3N9r2EGEYYxkBqIIZHCDMGvR/x9se+GErk6eUf0axHJOFqxMcB390q7R1pNRMZDRE9widEfK3CR7ErBOdV0MMmaT//xDW6Ou8atHzsf8z2WzM20aNXE9fJwxqSKD4H+HBjK9PLWW7ya6sxHWjN4qOx5ORp8JFZcWsdmQzSONRf9ww2XWdsC0GHfQ/6Z5EAILv49/xnwn0K15SpL9bwRN5XsbZjsuNvtBsBek4s6/BL0eMO54Eo5bNY2BAXO+db/x4rXnUpqIhvXRaaWDKn6REJMpJQ1/qBpsh9zFXA4aG9gwnLoaKuispdTtSPhOq4hq/cLtq6w+IbgfNDXpobxp7P9BjApBSk6BNQ0dW5xG0Pgwtdvri4d+MRPEHvk5IlkJRFFrHENIT4VeKfQLoW6T5TemeOWxSgCJ//MZqDv6LcW8CMKLseE9zEXCx5i+eosyV3HkBgs3AXy23vs+ZazUCkmgxyGPVJvHhz1T8Bfl0zG2LmpxvDYJayoE0UF5P5yQ/X4hcmK6bk5agQVXHLEjadnbxHoAHsf/D4czUSypOShwteAR+aw0hHYRxZkBkveqBnsmTujA3unK5fvllTbriQNQc9C/oyU/Y+q3Mz+wT2Y+tkVnHvSCwGx3ytPp1qa+NOjjuFTr/s7CDFg5ND1fsONYhDLHdnd+CCsHRHLLKYw90DMgK43/Eq5NvK1RutBpwXxI8zahBfyHQaa0BAcK3JDRi9ffzVXL70HU57jnKMO2WzeDnjiJ5iMpk4NdaqkQBTUSUaOu1u8S+IJ+WYZkhsM5FkqIXmtpT3mXBlbrTEp30183hpdvC4MLfWB04P0WJvfIFcE1wqJZn6SNZ+5C+S359j9nefRn2tIAVJQhNRMDyeZ7S18WNZzUe48S2d0tYERnWnWBcyoqPbY56ifHqBhGDpXr01GXHTUATd5PzcI9P0O/ScaiwDBkBD3VtKFkiZRyzxvaq/TSRl35NcW3G7Z5ugku7NkB3Rs8OTfpTCfJFeYxrKJiTCInHPyi4DMXl7bTGM5uw0yIiIgJ9VB5L6exROQbfNACH02sD+T9Q/KGdHOghhJfTDO7juFxrLrkLh+ao7lszNcdOTm6tGqVSdx/dZXMFy3wFS1FfXUUMpZSzVBgHeA8Aqklzmfyk2Z/TjuK1vkHmtfLI/XGuqjHTFS3jVKVTGigczIDhbmHzsxMVmkRmk5VVes+cwTb3Jj3DVu4bDZ6+izGCybY+LaJaTKlYPqXm9DGA5nPifzRLI227mIKbZlB+tWh88MVZ3Ds3UV0gHgK5U74jbylszFLY8bfcc+K/+5ANeVocZ+mXJmW8viuoB5EdhH/urW8bxlsI9J9lSo+SjpXNBLUDqteI4qobquE1j0elmdb8eq1SextlmKFaios41tyQE5p+1lJkPBsVqSVF/NQupTxSoUfjwUoKc2zicFWPLzeYbLe6y79zQ//Yv92NK4/2M+ifuJNFxKYB2OCrk+X2hyXqG2Bl6CeJlhh4LmOpe0ppXinTxuV2SRQt7Z5FsEfPF0SsiJzPVExCfrZvjMXuhBUDG/8jVO/+QNk0a/73HPY87OacRA1QRmNE3T1Ayqhktese9NffxON/Z8y1ndrraMUs5Pdww7KaUTQPcnV4upyODu9LFxkHc7Iav2FdJaxOFKPp9s4jUI1k3PcfnLb16t+RsF+l4P+gAhJUgNBGcvGPErsh6jUuzAbSC6NrfXbwbY84Pl4RIu2yvKzHsVeaMTvw0SKSedNDS1r5x4CHcbnsp26ZecfPLqze571eqT+BV3o2EJy3wVjUzqfOVZy0jKQQT9Hvzy7HvB9AZ2XXEFp97ExB30mA9RxykGg62YqH6LVcpaRVJIoajf4W6I58v8FWKnAs6hRQUlzdaFJdRoY8BNAT7/oSXYy3VF7jYSy+/vVvArTR9Snd0uxXQ689NPudFn+32Pe777HFJhH3pNRCkFqatQxGDSXPay+93kde7wYbPX0eewzfeuZe2DlyMrbtzh+mbq6q0BPxT4hGAHRiGrLQ1VFrNV6grxlhmwIagns9ahgNxUpBw/4mpz786NjZuU+fus/KesB4dsEyikZThcgNkZUUuqOu7/FoJd3YEmYTfONecEusbmjQrhg3YaFKlUGZJwqh2oJjfAsM+533jJzXmcWzRWPOHD/Pr+/z93O/uZaDiTDRkRHJKVQpIgRQiO90V+oeFZguXFrV9KRymosGnWuGwuyne59RsD/NjfO1GvkmZarvHShN+/oQfL6tDSoqSebtT9c0eNex5zdhsEVlVN6IfGs3PNnsyEi0PtkDSEMGHuPn/togSgO9PY+01raHoVSqDUCBGtUG/zkwHX7tp7PbC6vDWr4C2sM40+oliKOUsG/xDTE1xl8XA5g1yNazWmXtrj4lffsCttS+NmIWOfQ/4FQsr8nlzbWqUcI41Qyqb8bSLZW7C7uMZ6JU7ox8AHkvRh5cohUNWojhWQREgWxIU+O/3scVxxny9wzree9ztNRDv2eMgJLF/2c3bf9wTOP/eZBIeW8Q5CIaXUhBCzBy8mSGG54PFIz0Uc7s6EVk3mNwIlw20kvwuLPpaQVyT8KAhmi241Onu8/L0kumij4MmIEy0H5QrUNqJvc+pnnnaL5uL2Hvd6x3lMNzlou5b2k5rdoDqeVAOqJDc/evX+ttay95uvZP3U+putqt7eY+83rSFNhRzmUluWopLrYrseYHg/cJAygBO5DkKhVbwId+pSnGXl0lF9owuMHiX7CuFKtWulWwZyuJlAX7HqPdTDSEmkqUA1+IWyPohoVAoQ3xo1Pj9/l/XWnhtJOTKtKorulZjjkD45kXqnD8IABMGRhkao7Uii1Nqwar/TpmuIg0fgEuPcQtGqJAUHLHvhzIapg6BV+zEibIf8UEmPMnqsYPs230WZ8W6JlhJ3Q5vi3sUWjCZem5NvbA54ygSXN1moBnrGFxs/RQoXSlSiqnNVBHPGcU+9uUt8h4x7vfNc1MByYEM2T58JPA3zRtBZJaKgBUj640t/xmd33ZWZYc0Fr7tppvm2HqtWn8SvesvZGCdZ4nnUJFkKIaUmhYDs5ZaOAv6ubKTauXxYS7HQCoKioo9ImNwYMedP4O+4SY8mhlmZqMaNalNvdctA3n7BzRp7H/I+VNW4rlBIJWxVbxO8mmx7VAU9LXq3DPaOWFrseusi2Ur2m0b150p2qRK4cmHIgTOBEyV/IaTqh42ajWxCVoUghvMNcSKE9vAoj539kwISTlV0Re5CSntLIZ8CZgHi5DISuyM/XAoHAw+1WdImzChH5LXlm2nz2ruDg3HgskXAj0v4cdOti5uBovLn8sDkfISvGz8JNIdUoabm+j+AZb9mzWeeenOX9g4b93r7eSiZFMxUCiHhZPE44D+EvwH8A9bP8ywnmRDIZZ09c8V6FradZG7HGS77i71u1/vc6y3nwvL74usvRMMBBIItyW4cREhpa0svBf4WsWPRznK7MbsDODCWV05roo9INwD0wZd+cZsX/+sT1oIUSalRA81MdYtBDr/jcb/vA4+lVTZ72+/h4TUXIHqfxfoTxFBSr402tblhsG9Bst8A2OkC5bNMteQGqTeinW2h3yB9E/vHiHNAZ9msCzHMNoNmEHqiQ0772C3QDVPMshCnp1GYwCyzvTvSAcjbg1YADwDNiBxam2dAjU0i95xT63iAsQy/EeDblb1JwG8m4cdjXjt73Ai9u5FeWWU6a5T33ATWfP5Pf5dlvUPHbm89l/lew/K5PguxqSxqxE6yTyIXefwA0gdxOgtyYY6QmlASnJKS7elJtrtynuuWwIVHrWiNp1s8dj7meyxfv4SpDRXXL5tHCih7cML8DkvqqWs25BVIXk4ufvo3FncraK5L2OYiKQ60a52XPidqJKAB92RqxAtIfKSXxDA6E6kyTpGLjrp1pOTvPCP7PPBYOjlD8DwwSfN5rCeNud1Qsbp/Z7CTwbAJ2CmSfST5co23BOqV3/MDZZTNFvX8cqFLgF8XpWm+PMZkEbsJsaOlbQS7S1pKrtg5hTqzqfNrGQ1LUEp0yydQckpaN1nROFrHSQf49hBrJ71j29v7HnuG9pVRAI2BzFnAekl/jvz5Ix97JEd/5U0Bcr1rC9Z89um/65Le4WPXd5xNbzCJNSQFV4J62ZLA9evTByS/KKu5+hryZ1IIX4pNc02ujS2cIoG6VEzJLkYMNGbykJ249D/P5G4P3p0fv3jPzb/Y5sCXn8Y9f3AtP33szsynIYScCp6XTrEsWN1yZWmyIi7UBwF/hvkTw05FiGTSFQrpCnQbAfL9tf/mdGtyqTHI2unzQBdgotrnQJASF94GHYRvwdFn9nng+yjsUaiU0pwremq+KuvRkgYF7LrFkp0bBPs4CApvWWxX5Uo0hogVJLqgnbxqraRU9z0jYHmM+S5S1KrL+4OU/fHFNZet+zZuHrp7zkFA3TXybHXifSz3vZvJG5Dw2VRpN1uTlXYF4VMtni70C+QoQjPid/qs+fydj1m/uWPPd5xDWlCBCmG4kFK/LyyeIPNBYMdieF0HnAh8Gfgvp/CbkNP2WxShLDZjSUDMpt94lsho5J1XjlQpeL4Xm4nhsDMBsw2oCqe9QI/HfjxwiFtL29RkcLcNQEYmYrsX2sMHZFxML0dgHrH6h0ce8Pa933QWoCr0h7UH2az/4c0Mhrk54xZdZeXKY1infmtSBkHylZfBPXY5HuuJRbJXJUH0JiQ7tLHxXSIMLfg3ATud+OyAW4BWRH4Xgt9lp5UE+pyhnRPX80awR9fMerc6mKoDoOguOgo7Hknkca06vzaGUzrAeyQjNgX8JhJ+zPWCybXle2Wpjm6qjUfGZgaJqheurmt2wIY1n3v6LV3KO9XY7a3n0EYxGRRy+mUDaRvQO4Hnj94tgI3g74LOwJyGfBb42oAWTAkfH9OqujlalBnWfKkKdgAAC1BJREFUChEQgamFWTZOTCwLaHujw8F7yTwS2BvodjRZw+pI18Wx6uWIbnW9QiaWAJmqLPw3hf/a0sX32+FHnH31fQKElBwIGvLDLURg3ppxi3fHypXHsJ5+O33BIi0EMZH8IZk/l5Sy4uKotnTDogi6kdTbYoqrNwc7sIl0b6V/kdBjXFtBOWO9nRZJd7r1KtpDKwdgU+m+CKhtcpg80ghuC8DDKEuJXFJLyu65Xwi9EHHikt4EG+pBECkpJFLqc9bx/3Ps8Zs1bPZ4y7k0Svz0j+7Nfb51WaltJwI81PBW2bnXUhtaMrKT5oV/bXMm8JOSl3G54DLwFYZmbOprYHvBdlj3QmxneynSCsEK8ARmgpZ6yUtcl9UbsbblRkbgbt/ckSupbJkCcJ8neJ1T+pJixKiKaupWF8GJC4486Daf1lslBlaseg+DQb99pBAbp9RrcBPfIHRUzggjJ8FQ+MfNwO4OZIvBzgjQ0iJQLib3RXdubhHsY8BuwV6u02pmjEv3sXvK7xup160eqG5FVbzaI8AvTh9vv79IlvHrjAA/crtk0yO3bcr3+MHg+IoU0gblLKem3UQSnPn5Z9ya5btTj93fdjaxyfOUm2EpyG7m4hRTzdyzLR0hu5WyC+Rupb0bueSQcds5o7TfSXRaIVK2kI3ygZuUCz1o0XKpW0C6xOAR92ZKgUdGVZwuERyz3eT8B36zMGHnoCs5hJSSqKi58KjbHuDtuNX63sqVx7Be3fwqkEgEG54q9Allt9vQUAkXVXhxbHzLOo+nuHb4Gfe1jy3IpnZ7azN1819y0tuTtq0GOx6IMkaUd3Z7d5Vy9I9HrY3MhzGp3F4bNgN891vZQJu2bqOk9pRbrOmSaXSJ0Usl/rtcJBKGTT/NMNSANcc/87ZYujv9WLX6JK7sL2ewdMDMz7ejWX59/E2YabZNG5mdHoSZ2f7TgVcB4yVPh+QqLKGYgS3YNp+wvHjJmf1uUdra20Vz6zICN1HLR5K7feem4C4C8DTQsaEXP53quuklMwwhWqFRFE4JDW8bwu3Gxm20W8y+D/zn0XHpXPROgf0wnwL2Vq7xDjiWrLesUP8uYC/vu5l2+xjY28+NkWRbUuXL2nXRep10b38e+++4VG7z2zex38fJtvawKd/eFZZQzjazS3spoX8OgVcmWIDSBKPVUJvAWV/63yvFb2jsfsy59DY0xKah6UcaFFPVNLGuGDamH/xQw59JPBGzVfs555O1ZrG6XVaxvKf8t+yUtlzTaJQTXzAy+stHPW53d38wgquBL1gcF2r/d4qBiEhKUabJWc+J0NSc//oH3NbTtcVxG4oFZ9dbrFmycSs2TMxXCq6HThM9x2MRLywwGJbiFSUYxjl8DWjt9sVgb6PYiioON223q1WXO1R3qnwL0O57GEn3dkY2t93z821ZnS8Ot1a6l+t1b1xsv7v8LExCTsrtkBB82/AaSaeFmEgOsWK+me1VVMPI1tfvvOVaZP+Hxt5vOYsFzAYvsLUmkRUvfu2KZq83nwMYB7Yn8QTEIzCPEmzlTa7RquNAC3q1x/VIE4Si+Jnyf9OC3LHNjl58XV8DfBX4khW+gb0O3LaujEE0Cxt7bHX365n/7QwXvv73G9l3m+t/+x32j7jpkV27jrXd9BTBfiriWMOOJZy/kVUVyV7wMUbSFZsdGNntNxvsI1t7M7BvospTmP/NbfeRdGf8ejAGfjH+7wjf44Qd5Dsv/oV8kYbS2B70M+Q3hhD/0ymBFENwao3ENKw4+yvPvK2X6X/02PfoM5mvJthh9mqundgGOfegM6RiIePI1mp8GNKDgPthrwT1wX2gXZf26B0Jk04VHxvjv+Y1XgCvkzkJ+JHhmwGdbVjfmm02UdkQaO5x5SyX7bKE6bkh567+/UjwTcftYujtdcj7iRq2Kq+Uy8Y0hLQNDkeDXlrU9LpI9tjK2my/j4EdRtK9ldRmRMRBR6Ztwd++uSpfjupOlS+zMCq9yWJ1flPpzth9barOM26/Z82x/Q4rn3zkWGYkXQ28xVV4nxoPUQ88jMOhmwu+/nAOfMI3WHPCc26vJfpfMXZ//ZlUkxX0KrwwJKtXRJnkkDvjGEjJVNJyxE4WB8ve1WiJYCdge2AX8I7Ode/bCOYKuAr4BXAN+BeCdYiLgDWSr7bjBpeqv0HgrjKsmujEcBBRhK2Xzd1k+vPtPW63XbRq1WquWdgOnOh5I3VYGq3WvaFDkd8m6TBjZA2RQiZCFrnf2iytMbC3gNxiQsyW7Xa4CeneAtkjkLfSvDv0N2HmgZZ5B8YlfIkUUmvCNyViP5YZvxL0LwS/z9Z15GSI3F21HAq92HDmCc+9vZbmf+XY9c0/pM8ssUrUTS/TICYYNL+Q6ql+6DRzyALDQBiYFOMEShNZB0tji6mF/vRwYTA7QVbCvAlgouwmQkm+IqGUEJGmx40Wa/x9j9tdXOz/wGMZoGIHW0EEW01UQ3J4BuIIm/1aYipTZI5u5XqrtXd2+5jq/Luo8h0rz0i6LyLqxqT4Jsx8O1NdH4fN2XlvAvikXPCx1wbhGS5EOjYkPp4iG8rnI1KTD5YGB3HOl/7s9l6S//Vj1eqT+NXEcuhVTA7mGaTQUihYlBYBWdVf/rozfN0bDgalcoB3QAeLH371D9j7sVcqd81r/SeZpbdhJoleYzZU4rwtFAm9s4zfi16YpfuO/Hzhnuw9fTFzqZcL20n00vowDEueJ/FXRiu6kFhc57DPFu+0drta4HZg737fgr+dTaR7q/63S8YWbPfy8mZ+d9rzoYRWtrHu2X430DjXa2uPm1riv0j8+0Sz5EsLvY3ZPAmKQsm1TQQFcfaX7wL47T32W30W/YWGpheYjyKEsfO+EwqLvWb5x0QwHDS3kQ9tv5xD1m/ktNUPvGMf5nccv1cDcK9DPkAv1FSqGbrCEPuebQaa4vJmP3auzn8M5m+EHo46X6Yl1VDqrBWwU4C2md0O3Xm9JemeH3rMBOj0uZHtDiOybky6F1W8qyIBdpsv3+sonLxZzgd9FoXjnNLFIQgPJtDEIAKNhhWN+oQ4x9lfuwvgd43bf9whTM+KQ/8xA92mUiIR4wX7/UWz3wX/UiSt97L1dMSzBLuOACTUZhKJkKFeZH0OxRm56m4W2Gkt+BHgNaJhR5UbKbEtpAL4qlPaKfae9BPBCZZOmBhc/52F/taWIKUUYgzCsVlYeh1bX3F3Nm6zjnO//Lzf65zfNf5vjzuU0l1x6D8yoOLgHX7BmVftDFIkKJGKxZyGvRR6DxI8Gnicpfu0XFmRreROr2rK68IOm9rtsEiVFznHvdzFyG1WmHgDKXe4E0A1Skrr8twANiK+C5wm8eWU4jkKuZRQTANSmKgQTayCd77/FVy+ZgcW1i3jgm/fuQo03jX+b4w7he9mjwM/xNTUeqr+BhbmtipNhxVITeOQo0JdxypU9V5IDwPuCzwMaQfhfkumZdUbQOP53amo8k0BupUrf7StiLtuLrnwjDrbrJ0doXnEBuAU4AKL7wmdWVVaW9e0B05bWtkiJWHUq/Gw4uyvj8pT3zXuGnfEuFMAfTTMfoceS8K4mSTGIUYhg55aoc1hF45pSk24mwIrkfcG7oG1J2Ivct/oHqYPY0Ra+ZYRk56pdOX2RQNyQYkrgDMlfoVZZzgtiIuM19pxY+Zs85X6/chw4EpyspVETR17qBHbDi/bYinqu8Zd444YdzKgj8aqVav5zcLdiJgQaoaOmQaToqzk4KSkXNtNkJJYNhFZt+ClUpp2YGvQTuBlMn2kvYo63zP+pdDliD7WryWuwawTHibHWVXNwA7tQVCCd8ApiNBWAJGxrKam3lgTl0xw7rdecEdP213jrrHF8f8Ape8w2XNZBPgAAAAASUVORK5CYII=;" vertex="1" parent="1">
          <mxGeometry x="540" y="350" width="116.67" height="70" as="geometry" />
        </mxCell>
        <mxCell id="7Er0ZHuBf4pXvNHMomGy-7" value="" style="endArrow=classic;html=1;rounded=0;" edge="1" parent="1" source="7Er0ZHuBf4pXvNHMomGy-2" target="7Er0ZHuBf4pXvNHMomGy-5">
          <mxGeometry width="50" height="50" relative="1" as="geometry">
            <mxPoint x="400" y="620" as="sourcePoint" />
            <mxPoint x="450" y="570" as="targetPoint" />
          </mxGeometry>
        </mxCell>
      </root>
    </mxGraphModel>
  </diagram>
</mxfile>
